SplineFontDB: 3.2
FontName: Fresh Pixel
FullName: Fresh Pixel
FamilyName: Fresh Pixel
Weight: Regular
Copyright: Copyright (c) 2010 Google Corporation\nCopyright (c) 2012 Red Hat, Inc.\nCopyright (c) 2023, Richard Acayan
UComments: "2023-9-28: Created with FontForge (http://fontforge.org), derived from Liberation Mono size 10."
Version: 001.000
ItalicAngle: 0
UnderlinePosition: -100
UnderlineWidth: 50
Ascent: 800
Descent: 200
InvalidEm: 0
LayerCount: 2
Layer: 0 0 "Back" 1
Layer: 1 0 "Fore" 0
XUID: [1021 735 -655526886 4895483]
StyleMap: 0x0000
FSType: 0
OS2Version: 0
OS2_WeightWidthSlopeOnly: 0
OS2_UseTypoMetrics: 1
CreationTime: 1695895339
ModificationTime: 1695920304
OS2TypoAscent: 0
OS2TypoAOffset: 1
OS2TypoDescent: 0
OS2TypoDOffset: 1
OS2TypoLinegap: 90
OS2WinAscent: 0
OS2WinAOffset: 1
OS2WinDescent: 0
OS2WinDOffset: 1
HheadAscent: 0
HheadAOffset: 1
HheadDescent: 0
HheadDOffset: 1
MarkAttachClasses: 1
DEI: 91125
Encoding: ISO8859-1
UnicodeInterp: none
NameList: AGL For New Fonts
DisplaySize: -48
AntiAlias: 1
FitToEm: 0
WinInfo: 64 16 4
BeginPrivate: 0
EndPrivate
BeginChars: 256 256

StartChar: exclam
Encoding: 33 33 1
Width: 291
VWidth: 0
Flags: HW
HStem: 200 67<83 208> 514 20G<83 208> 534 21G<83 208> 647 20G<83 208>
VStem: 83 125<200 267 334 667>
LayerCount: 2
Fore
SplineSet
83 667 m 25x98
 208 667 l 25
 208 600 l 25
 83 600 l 25
 83 667 l 25x98
83 600 m 25
 208 600 l 25
 208 534 l 25
 83 534 l 25xd8
 83 600 l 25
83 534 m 25
 208 534 l 25
 208 467 l 25
 83 467 l 25
 83 534 l 25
83 467 m 25
 208 467 l 25
 208 400 l 25
 83 400 l 25
 83 467 l 25
83 400 m 25
 208 400 l 25
 208 334 l 25
 83 334 l 25
 83 400 l 25
83 267 m 25
 208 267 l 25
 208 200 l 25
 83 200 l 25
 83 267 l 25
EndSplineSet
EndChar

StartChar: quotedbl
Encoding: 34 34 2
Width: 666
VWidth: 0
Flags: HW
HStem: 467 200<83 208 458 583> 514 20G<83 208 458 583> 534 21G<83 208 458 583>
VStem: 83 125<467 667> 458 125<467 667>
LayerCount: 2
Fore
SplineSet
83 667 m 25x98
 208 667 l 25
 208 600 l 25
 83 600 l 25
 83 667 l 25x98
458 667 m 25
 583 667 l 25
 583 600 l 25
 458 600 l 25
 458 667 l 25
83 600 m 25
 208 600 l 25
 208 534 l 25
 83 534 l 25x58
 83 600 l 25
458 600 m 25
 583 600 l 25
 583 534 l 25
 458 534 l 25
 458 600 l 25
83 534 m 25
 208 534 l 25x58
 208 467 l 25
 83 467 l 25x98
 83 534 l 25
458 534 m 25
 583 534 l 25x58
 583 467 l 25
 458 467 l 25x98
 458 534 l 25
EndSplineSet
EndChar

StartChar: numbersign
Encoding: 35 35 3
Width: 916
VWidth: 0
Flags: HW
HStem: 200 200<458 583> 334 66<83 208 333 458> 467 200<333 458> 467 67<458 583 708 833> 534 21G<333 458 583 708>
VStem: 83 125<334 400> 208 125<200 534> 333 125<334 400 467 667> 458 125<200 400 467 534> 583 125<334 667> 708 125<467 534>
LayerCount: 2
Fore
SplineSet
333 667 m 25x21
 458 667 l 25
 458 600 l 25
 333 600 l 25
 333 667 l 25x21
583 667 m 25x2040
 708 667 l 25
 708 600 l 25
 583 600 l 25
 583 667 l 25x2040
333 600 m 25x09
 458 600 l 25
 458 534 l 25x11
 333 534 l 25x0a
 333 600 l 25x09
583 600 m 25x1040
 708 600 l 25
 708 534 l 25x1040
 583 534 l 25x1080
 583 600 l 25x1040
208 534 m 25x0a
 333 534 l 25x0a
 333 467 l 25x22
 208 467 l 25x12
 208 534 l 25x0a
333 534 m 25
 458 534 l 25x11
 458 467 l 25x21
 333 467 l 25x22
 333 534 l 25
458 534 m 25
 583 534 l 25
 583 467 l 25x1080
 458 467 l 25x21
 458 534 l 25
583 534 m 25
 708 534 l 25
 708 467 l 25x1040
 583 467 l 25
 583 534 l 25
708 534 m 25
 833 534 l 25
 833 467 l 25x1020
 708 467 l 25
 708 534 l 25
208 467 m 25x52
 333 467 l 25
 333 400 l 25x62
 208 400 l 25x64
 208 467 l 25x52
583 467 m 25x9080
 708 467 l 25
 708 400 l 25x5040
 583 400 l 25
 583 467 l 25x9080
83 400 m 25x44
 208 400 l 25
 208 334 l 25
 83 334 l 25
 83 400 l 25x44
208 400 m 25
 333 400 l 25
 333 334 l 25x42
 208 334 l 25
 208 400 l 25
333 400 m 25
 458 400 l 25x81
 458 334 l 25x41
 333 334 l 25
 333 400 l 25
458 400 m 25
 583 400 l 25x8080
 583 334 l 25x4080
 458 334 l 25x41
 458 400 l 25
583 400 m 25
 708 400 l 25
 708 334 l 25x4040
 583 334 l 25x4080
 583 400 l 25
208 334 m 25x44
 333 334 l 25
 333 267 l 25
 208 267 l 25x42
 208 334 l 25x44
458 334 m 25x41
 583 334 l 25
 583 267 l 25
 458 267 l 25x4080
 458 334 l 25x41
208 267 m 25x82
 333 267 l 25
 333 200 l 25
 208 200 l 25
 208 267 l 25x82
458 267 m 25x8080
 583 267 l 25
 583 200 l 25
 458 200 l 25
 458 267 l 25x8080
EndSplineSet
EndChar

StartChar: dollar
Encoding: 36 36 4
Width: 916
VWidth: 0
Flags: HW
HStem: 180 20G<458 583> 200 67<208 458 583 708> 267 133<708 833> 267 67<83 208> 400 67<333 458 583 708> 514 20G<208 333 458 583> 534 133<583 708> 600 67<333 458> 667 21G<458 583>
VStem: 83 125<267 334> 208 125<200 267 400 667> 333 125<200 267 400 467 600 667> 458 125<134 734> 583 125<200 267 400 467 534 667> 708 125<267 400>
LayerCount: 2
Fore
SplineSet
458 734 m 25x0108
 583 734 l 25
 583 667 l 25x0208
 458 667 l 25x0110
 458 734 l 25x0108
208 667 m 25x00a0
 333 667 l 25
 333 600 l 25
 208 600 l 25x0120
 208 667 l 25x00a0
333 667 m 25
 458 667 l 25
 458 600 l 25x0110
 333 600 l 25
 333 667 l 25
458 667 m 25
 583 667 l 25x0208
 583 600 l 25x0108
 458 600 l 25
 458 667 l 25
583 667 m 25
 708 667 l 25x0204
 708 600 l 25x0104
 583 600 l 25x0108
 583 667 l 25
208 600 m 25x0520
 333 600 l 25
 333 534 l 25
 208 534 l 25
 208 600 l 25x0520
458 600 m 25x0510
 583 600 l 25
 583 534 l 25
 458 534 l 25x0508
 458 600 l 25x0510
583 600 m 25
 708 600 l 25x0504
 708 534 l 25x0204
 583 534 l 25
 583 600 l 25
208 534 m 25x0c20
 333 534 l 25
 333 467 l 25
 208 467 l 25
 208 534 l 25x0c20
458 534 m 25x0c08
 583 534 l 25
 583 467 l 25x0c08
 458 467 l 25x0c10
 458 534 l 25x0c08
208 467 m 25x0820
 333 467 l 25
 333 400 l 25
 208 400 l 25
 208 467 l 25x0820
333 467 m 25
 458 467 l 25
 458 400 l 25x0810
 333 400 l 25
 333 467 l 25
458 467 m 25
 583 467 l 25
 583 400 l 25x0808
 458 400 l 25
 458 467 l 25
583 467 m 25
 708 467 l 25x0804
 708 400 l 25x2004
 583 400 l 25
 583 467 l 25
458 400 m 25x1810
 583 400 l 25
 583 334 l 25
 458 334 l 25x1808
 458 400 l 25x1810
708 400 m 25x2004
 833 400 l 25x2002
 833 334 l 25
 708 334 l 25x1002
 708 400 l 25x2004
83 334 m 25x1040
 208 334 l 25x1040
 208 267 l 25x4040
 83 267 l 25
 83 334 l 25x1040
458 334 m 25x1008
 583 334 l 25x1008
 583 267 l 25x4008
 458 267 l 25x4010
 458 334 l 25x1008
708 334 m 25x1002
 833 334 l 25x1002
 833 267 l 25x2002
 708 267 l 25x4004
 708 334 l 25x1002
208 267 m 25x4040
 333 267 l 25
 333 200 l 25
 208 200 l 25x4020
 208 267 l 25x4040
333 267 m 25
 458 267 l 25x4010
 458 200 l 25x8010
 333 200 l 25
 333 267 l 25
458 267 m 25
 583 267 l 25x4008
 583 200 l 25x8008
 458 200 l 25x8010
 458 267 l 25
583 267 m 25
 708 267 l 25
 708 200 l 25x4004
 583 200 l 25x8008
 583 267 l 25
458 200 m 25x8010
 583 200 l 25
 583 134 l 25
 458 134 l 25x8008
 458 200 l 25x8010
EndSplineSet
EndChar

StartChar: percent
Encoding: 37 37 5
Width: 916
VWidth: 0
Flags: HW
HStem: 200 134<208 333> 200 67<583 708> 334 66<333 458 583 708> 467 67<208 333> 534 133<583 708> 600 67<208 333>
VStem: 83 125<467 667> 208 125<200 334 467 534 600 667> 333 125<334 400 467 667> 458 125<200 534> 583 125<200 267 334 400 534 667> 708 125<200 400>
LayerCount: 2
Fore
SplineSet
83 667 m 25x06
 208 667 l 25
 208 600 l 25
 83 600 l 25
 83 667 l 25x06
208 667 m 25
 333 667 l 25
 333 600 l 25x05
 208 600 l 25
 208 667 l 25
333 667 m 25
 458 667 l 25
 458 600 l 25x0480
 333 600 l 25
 333 667 l 25
583 667 m 25x0820
 708 667 l 25x0820
 708 600 l 25
 583 600 l 25x0420
 583 667 l 25x0820
83 600 m 25x06
 208 600 l 25
 208 534 l 25x16
 83 534 l 25x0a
 83 600 l 25x06
333 600 m 25x15
 458 600 l 25x1480
 458 534 l 25x0880
 333 534 l 25
 333 600 l 25x15
583 600 m 25x0420
 708 600 l 25x0420
 708 534 l 25x0820
 583 534 l 25x0840
 583 600 l 25x0420
83 534 m 25x0a
 208 534 l 25
 208 467 l 25
 83 467 l 25x12
 83 534 l 25x0a
208 534 m 25
 333 534 l 25
 333 467 l 25x11
 208 467 l 25
 208 534 l 25
333 534 m 25
 458 534 l 25x0880
 458 467 l 25x1080
 333 467 l 25
 333 534 l 25
458 534 m 25
 583 534 l 25x0840
 583 467 l 25x1040
 458 467 l 25x1080
 458 534 l 25
458 467 m 25x3080
 583 467 l 25
 583 400 l 25x3040
 458 400 l 25
 458 467 l 25x3080
333 400 m 25x2080
 458 400 l 25
 458 334 l 25x2080
 333 334 l 25x81
 333 400 l 25x2080
458 400 m 25
 583 400 l 25
 583 334 l 25x2040
 458 334 l 25
 458 400 l 25
583 400 m 25
 708 400 l 25
 708 334 l 25x2020
 583 334 l 25
 583 400 l 25
708 400 m 25
 833 400 l 25
 833 334 l 25x2010
 708 334 l 25
 708 400 l 25
208 334 m 25x81
 333 334 l 25x81
 333 267 l 25
 208 267 l 25x41
 208 334 l 25x81
458 334 m 25x6080
 583 334 l 25
 583 267 l 25
 458 267 l 25x6040
 458 334 l 25x6080
708 334 m 25x6020
 833 334 l 25
 833 267 l 25x6010
 708 267 l 25
 708 334 l 25x6020
208 267 m 25x41
 333 267 l 25x41
 333 200 l 25
 208 200 l 25x81
 208 267 l 25x41
458 267 m 25x4040
 583 267 l 25
 583 200 l 25
 458 200 l 25
 458 267 l 25x4040
583 267 m 25
 708 267 l 25
 708 200 l 25x4020
 583 200 l 25
 583 267 l 25
708 267 m 25
 833 267 l 25
 833 200 l 25x4010
 708 200 l 25
 708 267 l 25
EndSplineSet
EndChar

StartChar: ampersand
Encoding: 38 38 6
Width: 916
VWidth: 0
Flags: HW
HStem: 200 134<458 583> 200 67<208 458 708 833> 267 133<83 208> 334 133<333 458> 400 200<208 333> 467 67<458 583> 534 66<583 708> 600 67<333 583>
VStem: 83 125<267 400> 208 125<200 267 400 600> 333 125<200 267 334 467 600 667> 458 125<200 334 467 534 600 667> 583 125<200 467 534 600> 708 125<200 267>
LayerCount: 2
Fore
SplineSet
333 667 m 25x0120
 458 667 l 25
 458 600 l 25x0120
 333 600 l 25x0840
 333 667 l 25x0120
458 667 m 25
 583 667 l 25x0110
 583 600 l 25x0210
 458 600 l 25
 458 667 l 25
208 600 m 25x0840
 333 600 l 25x0840
 333 534 l 25
 208 534 l 25x0240
 208 600 l 25x0840
583 600 m 25x0210
 708 600 l 25
 708 534 l 25x0208
 583 534 l 25x0410
 583 600 l 25x0210
208 534 m 25x0240
 333 534 l 25
 333 467 l 25x1240
 208 467 l 25x0440
 208 534 l 25x0240
458 534 m 25x0410
 583 534 l 25
 583 467 l 25x0410
 458 467 l 25x1020
 458 534 l 25x0410
208 467 m 25x2440
 333 467 l 25x1040
 333 400 l 25x0840
 208 400 l 25x2080
 208 467 l 25x2440
333 467 m 25
 458 467 l 25x1020
 458 400 l 25x0820
 333 400 l 25x0840
 333 467 l 25
583 467 m 25x0410
 708 467 l 25x0408
 708 400 l 25
 583 400 l 25x0808
 583 467 l 25x0410
83 400 m 25x2080
 208 400 l 25x2080
 208 334 l 25
 83 334 l 25x1080
 83 400 l 25x2080
333 400 m 25x0840
 458 400 l 25
 458 334 l 25x8820
 333 334 l 25x1020
 333 400 l 25x0840
583 400 m 25x8808
 708 400 l 25x8808
 708 334 l 25x1008
 583 334 l 25x8010
 583 400 l 25x8808
83 334 m 25x1080
 208 334 l 25
 208 267 l 25x5080
 83 267 l 25x2080
 83 334 l 25x1080
458 334 m 25x8020
 583 334 l 25x8010
 583 267 l 25x2010
 458 267 l 25x4020
 458 334 l 25x8020
583 334 m 25
 708 334 l 25
 708 267 l 25x5008
 583 267 l 25x2010
 583 334 l 25
208 267 m 25x4080
 333 267 l 25
 333 200 l 25
 208 200 l 25x4040
 208 267 l 25x4080
333 267 m 25
 458 267 l 25x4020
 458 200 l 25x8020
 333 200 l 25
 333 267 l 25
458 267 m 25
 583 267 l 25x2010
 583 200 l 25x8010
 458 200 l 25x8020
 458 267 l 25
583 267 m 25
 708 267 l 25
 708 200 l 25x4008
 583 200 l 25x8010
 583 267 l 25
708 267 m 25
 833 267 l 25
 833 200 l 25x4004
 708 200 l 25
 708 267 l 25
EndSplineSet
EndChar

StartChar: quotesingle
Encoding: 39 39 7
Width: 416
VWidth: 0
Flags: HW
HStem: 467 200<83 208> 514 20G<83 208> 534 21G<83 208> 600 67<208 333>
VStem: 83 125<467 667> 208 125<600 667>
LayerCount: 2
Fore
SplineSet
83 667 m 25x88
 208 667 l 25x88
 208 600 l 25
 83 600 l 25x18
 83 667 l 25x88
208 667 m 25
 333 667 l 25
 333 600 l 25x14
 208 600 l 25x18
 208 667 l 25
83 600 m 25x58
 208 600 l 25
 208 534 l 25
 83 534 l 25
 83 600 l 25x58
83 534 m 25
 208 534 l 25x48
 208 467 l 25
 83 467 l 25x88
 83 534 l 25
EndSplineSet
EndChar

StartChar: parenleft
Encoding: 40 40 8
Width: 416
VWidth: 0
Flags: HW
HStem: 67 67<208 333> 180 20G<83 208> 200 21G<83 208> 514 20G<83 208> 534 21G<83 208> 600 67<208 333>
VStem: 83 125<134 600> 208 125<67 134 600 667>
LayerCount: 2
Fore
SplineSet
208 667 m 25x85
 333 667 l 25
 333 600 l 25x85
 208 600 l 25x86
 208 667 l 25x85
83 600 m 25x96
 208 600 l 25
 208 534 l 25
 83 534 l 25
 83 600 l 25x96
83 534 m 25
 208 534 l 25
 208 467 l 25
 83 467 l 25
 83 534 l 25
83 467 m 25
 208 467 l 25
 208 400 l 25
 83 400 l 25
 83 467 l 25
83 400 m 25
 208 400 l 25
 208 334 l 25
 83 334 l 25
 83 400 l 25
83 334 m 25
 208 334 l 25
 208 267 l 25
 83 267 l 25
 83 334 l 25
83 267 m 25
 208 267 l 25
 208 200 l 25
 83 200 l 25xc6
 83 267 l 25
83 200 m 25
 208 200 l 25
 208 134 l 25
 83 134 l 25
 83 200 l 25
208 134 m 25
 333 134 l 25
 333 67 l 25
 208 67 l 25x85
 208 134 l 25
EndSplineSet
EndChar

StartChar: parenright
Encoding: 41 41 9
Width: 416
VWidth: 0
Flags: HW
HStem: 67 67<83 208> 180 20G<208 333> 200 21G<208 333> 514 20G<208 333> 534 21G<208 333> 600 67<83 208>
VStem: 83 125<67 134 600 667> 208 125<134 600>
LayerCount: 2
Fore
SplineSet
83 667 m 25x86
 208 667 l 25
 208 600 l 25
 83 600 l 25
 83 667 l 25x86
208 600 m 25
 333 600 l 25
 333 534 l 25
 208 534 l 25x95
 208 600 l 25
208 534 m 25
 333 534 l 25
 333 467 l 25
 208 467 l 25
 208 534 l 25
208 467 m 25
 333 467 l 25
 333 400 l 25
 208 400 l 25
 208 467 l 25
208 400 m 25
 333 400 l 25
 333 334 l 25
 208 334 l 25
 208 400 l 25
208 334 m 25
 333 334 l 25
 333 267 l 25
 208 267 l 25
 208 334 l 25
208 267 m 25
 333 267 l 25
 333 200 l 25
 208 200 l 25xc5
 208 267 l 25
208 200 m 25
 333 200 l 25
 333 134 l 25xc5
 208 134 l 25xc6
 208 200 l 25
83 134 m 25x86
 208 134 l 25
 208 67 l 25
 83 67 l 25
 83 134 l 25x86
EndSplineSet
EndChar

StartChar: asterisk
Encoding: 42 42 10
Width: 666
VWidth: 0
Flags: HW
HStem: 400 134<208 333> 534 66<83 208 458 583> 647 20G<333 458>
VStem: 83 125<534 600> 208 125<400 534> 333 125<400 667> 458 125<534 600>
LayerCount: 2
Fore
SplineSet
333 667 m 25x64
 458 667 l 25
 458 600 l 25
 333 600 l 25
 333 667 l 25x64
83 600 m 25x70
 208 600 l 25x70
 208 534 l 25xb0
 83 534 l 25
 83 600 l 25x70
333 600 m 25x64
 458 600 l 25
 458 534 l 25x64
 333 534 l 25xa8
 333 600 l 25x64
458 600 m 25
 583 600 l 25
 583 534 l 25x62
 458 534 l 25
 458 600 l 25
208 534 m 25xb0
 333 534 l 25
 333 467 l 25
 208 467 l 25xa8
 208 534 l 25xb0
333 534 m 25
 458 534 l 25
 458 467 l 25x64
 333 467 l 25
 333 534 l 25
208 467 m 25xa8
 333 467 l 25
 333 400 l 25
 208 400 l 25
 208 467 l 25xa8
333 467 m 25
 458 467 l 25
 458 400 l 25xa4
 333 400 l 25
 333 467 l 25
EndSplineSet
EndChar

StartChar: plus
Encoding: 43 43 11
Width: 666
VWidth: 0
Flags: HW
HStem: 400 67<83 208 333 583> 514 20G<208 333> 534 21G<208 333>
VStem: 83 125<400 467> 208 125<267 600> 333 125<400 467> 458 125<400 467>
LayerCount: 2
Fore
SplineSet
208 600 m 25xc8
 333 600 l 25
 333 534 l 25
 208 534 l 25
 208 600 l 25xc8
208 534 m 25
 333 534 l 25
 333 467 l 25xc8
 208 467 l 25xd0
 208 534 l 25
83 467 m 25x90
 208 467 l 25
 208 400 l 25
 83 400 l 25
 83 467 l 25x90
208 467 m 25
 333 467 l 25
 333 400 l 25x88
 208 400 l 25
 208 467 l 25
333 467 m 25
 458 467 l 25
 458 400 l 25x84
 333 400 l 25
 333 467 l 25
458 467 m 25
 583 467 l 25
 583 400 l 25x82
 458 400 l 25
 458 467 l 25
208 400 m 25x90
 333 400 l 25
 333 334 l 25
 208 334 l 25x88
 208 400 l 25x90
208 334 m 25
 333 334 l 25
 333 267 l 25
 208 267 l 25
 208 334 l 25
EndSplineSet
EndChar

StartChar: comma
Encoding: 44 44 12
Width: 416
VWidth: 0
Flags: HW
HStem: 67 67<83 208> 134 133<208 333> 180 20G<208 333> 200 21G<208 333>
VStem: 83 125<67 134> 208 125<134 267>
LayerCount: 2
Fore
SplineSet
208 267 m 25x44
 333 267 l 25x44
 333 200 l 25
 208 200 l 25x24
 208 267 l 25x44
208 200 m 25xa4
 333 200 l 25xa4
 333 134 l 25x44
 208 134 l 25x88
 208 200 l 25xa4
83 134 m 25x88
 208 134 l 25
 208 67 l 25
 83 67 l 25
 83 134 l 25x88
EndSplineSet
EndChar

StartChar: hyphen
Encoding: 45 45 13
Width: 416
VWidth: 0
Flags: HW
HStem: 334 66<83 333>
VStem: 83 125<334 400> 208 125<334 400>
LayerCount: 2
Fore
SplineSet
83 400 m 25xc0
 208 400 l 25
 208 334 l 25
 83 334 l 25
 83 400 l 25xc0
208 400 m 25
 333 400 l 25
 333 334 l 25xa0
 208 334 l 25
 208 400 l 25
EndSplineSet
EndChar

StartChar: period
Encoding: 46 46 14
Width: 416
VWidth: 0
Flags: HW
HStem: 200 67<83 333>
VStem: 83 125<200 267> 208 125<200 267>
LayerCount: 2
Fore
SplineSet
83 267 m 25xc0
 208 267 l 25
 208 200 l 25
 83 200 l 25
 83 267 l 25xc0
208 267 m 25
 333 267 l 25
 333 200 l 25xa0
 208 200 l 25
 208 267 l 25
EndSplineSet
EndChar

StartChar: slash
Encoding: 47 47 15
Width: 666
VWidth: 0
Flags: HW
HStem: 200 134<83 208> 334 66<208 333> 400 134<333 458> 534 133<458 583>
VStem: 83 125<200 334> 208 125<334 400> 333 125<400 534> 458 125<534 667>
LayerCount: 2
Fore
SplineSet
458 667 m 25x11
 583 667 l 25
 583 600 l 25
 458 600 l 25
 458 667 l 25x11
458 600 m 25
 583 600 l 25
 583 534 l 25x11
 458 534 l 25x22
 458 600 l 25
333 534 m 25x22
 458 534 l 25
 458 467 l 25
 333 467 l 25
 333 534 l 25x22
333 467 m 25
 458 467 l 25
 458 400 l 25x22
 333 400 l 25x44
 333 467 l 25
208 400 m 25x44
 333 400 l 25
 333 334 l 25x44
 208 334 l 25x88
 208 400 l 25x44
83 334 m 25x88
 208 334 l 25
 208 267 l 25
 83 267 l 25
 83 334 l 25x88
83 267 m 25
 208 267 l 25
 208 200 l 25
 83 200 l 25
 83 267 l 25
EndSplineSet
EndChar

StartChar: zero
Encoding: 48 48 16
Width: 666
VWidth: 0
Flags: HW
HStem: 200 67<208 458> 267 333<83 208 458 583> 400 67<208 458> 514 20G<83 208 458 583> 534 21G<83 208 458 583> 600 67<208 458>
VStem: 83 125<267 600> 208 125<200 267 400 467 600 667> 333 125<200 267 400 467 600 667> 458 125<267 600>
LayerCount: 2
Fore
SplineSet
208 667 m 25x05
 333 667 l 25
 333 600 l 25x05
 208 600 l 25x42
 208 667 l 25x05
333 667 m 25
 458 667 l 25x0480
 458 600 l 25x4080
 333 600 l 25
 333 667 l 25
83 600 m 25x42
 208 600 l 25x42
 208 534 l 25
 83 534 l 25x12
 83 600 l 25x42
458 600 m 25x4080
 583 600 l 25x4040
 583 534 l 25
 458 534 l 25x1040
 458 600 l 25x4080
83 534 m 25x32
 208 534 l 25
 208 467 l 25
 83 467 l 25
 83 534 l 25x32
458 534 m 25x3040
 583 534 l 25
 583 467 l 25x3040
 458 467 l 25x3080
 458 534 l 25x3040
83 467 m 25x22
 208 467 l 25
 208 400 l 25
 83 400 l 25
 83 467 l 25x22
208 467 m 25
 333 467 l 25
 333 400 l 25x21
 208 400 l 25
 208 467 l 25
333 467 m 25
 458 467 l 25
 458 400 l 25x2080
 333 400 l 25
 333 467 l 25
458 467 m 25
 583 467 l 25
 583 400 l 25x2040
 458 400 l 25
 458 467 l 25
83 400 m 25x22
 208 400 l 25
 208 334 l 25
 83 334 l 25
 83 400 l 25x22
458 400 m 25x2080
 583 400 l 25
 583 334 l 25
 458 334 l 25x2040
 458 400 l 25x2080
83 334 m 25x42
 208 334 l 25
 208 267 l 25x82
 83 267 l 25
 83 334 l 25x42
458 334 m 25x8040
 583 334 l 25
 583 267 l 25x4040
 458 267 l 25x8080
 458 334 l 25x8040
208 267 m 25x82
 333 267 l 25
 333 200 l 25
 208 200 l 25x81
 208 267 l 25x82
333 267 m 25
 458 267 l 25
 458 200 l 25x8080
 333 200 l 25
 333 267 l 25
EndSplineSet
EndChar

StartChar: one
Encoding: 49 49 17
Width: 791
VWidth: 0
Flags: HW
HStem: 200 67<83 333 458 708> 514 20G<333 458> 534 66<83 208> 600 67<208 333>
VStem: 83 125<200 267 534 600> 208 125<200 267 600 667> 333 125<200 667> 458 125<200 267> 583 125<200 267>
LayerCount: 2
Fore
SplineSet
208 667 m 25x94
 333 667 l 25
 333 600 l 25x94
 208 600 l 25xa8
 208 667 l 25x94
333 667 m 25
 458 667 l 25
 458 600 l 25x92
 333 600 l 25
 333 667 l 25
83 600 m 25xa8
 208 600 l 25
 208 534 l 25
 83 534 l 25
 83 600 l 25xa8
333 600 m 25xd4
 458 600 l 25
 458 534 l 25
 333 534 l 25xd2
 333 600 l 25xd4
333 534 m 25
 458 534 l 25
 458 467 l 25
 333 467 l 25
 333 534 l 25
333 467 m 25
 458 467 l 25
 458 400 l 25
 333 400 l 25
 333 467 l 25
333 400 m 25
 458 400 l 25
 458 334 l 25
 333 334 l 25
 333 400 l 25
333 334 m 25
 458 334 l 25
 458 267 l 25x82
 333 267 l 25x84
 333 334 l 25
83 267 m 25x88
 208 267 l 25
 208 200 l 25
 83 200 l 25
 83 267 l 25x88
208 267 m 25
 333 267 l 25
 333 200 l 25x84
 208 200 l 25
 208 267 l 25
333 267 m 25
 458 267 l 25
 458 200 l 25x82
 333 200 l 25
 333 267 l 25
458 267 m 25
 583 267 l 25
 583 200 l 25x81
 458 200 l 25
 458 267 l 25
583 267 m 25
 708 267 l 25
 708 200 l 25x8080
 583 200 l 25
 583 267 l 25
EndSplineSet
EndChar

StartChar: two
Encoding: 50 50 18
Width: 666
VWidth: 0
Flags: HW
HStem: 200 134<83 208> 200 67<208 583> 334 66<208 333> 400 67<333 458> 467 200<458 583> 514 20G<458 583> 534 133<83 208> 600 67<208 458>
VStem: 83 125<200 334 534 667> 208 125<200 267 334 400 600 667> 333 125<200 267 400 467 600 667> 458 125<200 267 467 667>
LayerCount: 2
Fore
SplineSet
83 667 m 25x0280
 208 667 l 25x0280
 208 600 l 25
 83 600 l 25x0180
 83 667 l 25x0280
208 667 m 25
 333 667 l 25
 333 600 l 25x0140
 208 600 l 25x0180
 208 667 l 25
333 667 m 25
 458 667 l 25x0820
 458 600 l 25x0120
 333 600 l 25
 333 667 l 25
458 667 m 25
 583 667 l 25x0810
 583 600 l 25x0110
 458 600 l 25x0120
 458 667 l 25
83 600 m 25x0180
 208 600 l 25x0180
 208 534 l 25
 83 534 l 25x0280
 83 600 l 25x0180
458 600 m 25x0520
 583 600 l 25
 583 534 l 25
 458 534 l 25x0510
 458 600 l 25x0520
458 534 m 25
 583 534 l 25x1410
 583 467 l 25x0810
 458 467 l 25x1020
 458 534 l 25
333 467 m 25x1020
 458 467 l 25
 458 400 l 25x1020
 333 400 l 25x2040
 333 467 l 25x1020
208 400 m 25x2040
 333 400 l 25
 333 334 l 25x2040
 208 334 l 25x8080
 208 400 l 25x2040
83 334 m 25x8080
 208 334 l 25x8080
 208 267 l 25
 83 267 l 25x4080
 83 334 l 25x8080
83 267 m 25x4080
 208 267 l 25x4080
 208 200 l 25
 83 200 l 25x8080
 83 267 l 25x4080
208 267 m 25
 333 267 l 25
 333 200 l 25x4040
 208 200 l 25x8080
 208 267 l 25
333 267 m 25
 458 267 l 25
 458 200 l 25x4020
 333 200 l 25
 333 267 l 25
458 267 m 25
 583 267 l 25
 583 200 l 25x4010
 458 200 l 25
 458 267 l 25
EndSplineSet
EndChar

StartChar: three
Encoding: 51 51 19
Width: 666
VWidth: 0
Flags: HW
HStem: 200 200<458 583> 200 134<83 208> 200 67<208 458> 400 67<208 458> 467 200<458 583> 514 20G<458 583> 534 133<83 208> 600 67<208 458>
VStem: 83 125<200 334 534 667> 208 125<200 267 400 467 600 667> 333 125<200 267 400 467 600 667> 458 125<200 400 467 667>
LayerCount: 2
Fore
SplineSet
83 667 m 25x0280
 208 667 l 25x0280
 208 600 l 25
 83 600 l 25x0180
 83 667 l 25x0280
208 667 m 25
 333 667 l 25
 333 600 l 25x0140
 208 600 l 25x0180
 208 667 l 25
333 667 m 25
 458 667 l 25x0820
 458 600 l 25x0120
 333 600 l 25
 333 667 l 25
458 667 m 25
 583 667 l 25x0810
 583 600 l 25x0110
 458 600 l 25x0120
 458 667 l 25
83 600 m 25x0180
 208 600 l 25x0180
 208 534 l 25
 83 534 l 25x0280
 83 600 l 25x0180
458 600 m 25x0520
 583 600 l 25
 583 534 l 25
 458 534 l 25x0510
 458 600 l 25x0520
458 534 m 25
 583 534 l 25x1410
 583 467 l 25x0810
 458 467 l 25x1020
 458 534 l 25
208 467 m 25x1040
 333 467 l 25
 333 400 l 25
 208 400 l 25
 208 467 l 25x1040
333 467 m 25
 458 467 l 25x1020
 458 400 l 25x8020
 333 400 l 25
 333 467 l 25
458 400 m 25x8020
 583 400 l 25x8010
 583 334 l 25
 458 334 l 25x4010
 458 400 l 25x8020
83 334 m 25x4080
 208 334 l 25x4080
 208 267 l 25
 83 267 l 25x2080
 83 334 l 25x4080
458 334 m 25x4010
 583 334 l 25x4010
 583 267 l 25x2010
 458 267 l 25x2020
 458 334 l 25x4010
83 267 m 25x2080
 208 267 l 25x2080
 208 200 l 25
 83 200 l 25x4080
 83 267 l 25x2080
208 267 m 25
 333 267 l 25
 333 200 l 25x2040
 208 200 l 25x4080
 208 267 l 25
333 267 m 25
 458 267 l 25x2020
 458 200 l 25x8020
 333 200 l 25
 333 267 l 25
458 267 m 25
 583 267 l 25x2010
 583 200 l 25x8010
 458 200 l 25x8020
 458 267 l 25
EndSplineSet
EndChar

StartChar: four
Encoding: 52 52 20
Width: 916
VWidth: 0
Flags: HW
HStem: 200 21G<583 708> 334 133<208 333> 334 66<83 208 333 583 708 833> 467 133<333 458> 514 20G<333 458 583 708> 534 21G<333 458 583 708> 600 67<458 583>
VStem: 83 125<334 400> 208 125<334 467> 333 125<334 400 467 600> 458 125<334 400 600 667> 583 125<200 667> 708 125<334 400>
LayerCount: 2
Fore
SplineSet
458 667 m 25x8220
 583 667 l 25
 583 600 l 25x8220
 458 600 l 25x9040
 458 667 l 25x8220
583 667 m 25
 708 667 l 25
 708 600 l 25x8210
 583 600 l 25
 583 667 l 25
333 600 m 25x9040
 458 600 l 25x9040
 458 534 l 25
 333 534 l 25x8840
 333 600 l 25x9040
583 600 m 25x8a20
 708 600 l 25
 708 534 l 25
 583 534 l 25x8a10
 583 600 l 25x8a20
333 534 m 25xc840
 458 534 l 25xc840
 458 467 l 25x9040
 333 467 l 25xc080
 333 534 l 25xc840
583 534 m 25x8810
 708 534 l 25x8810
 708 467 l 25
 583 467 l 25x9010
 583 534 l 25x8810
208 467 m 25xc080
 333 467 l 25xc080
 333 400 l 25xa080
 208 400 l 25xa1
 208 467 l 25xc080
583 467 m 25xb010
 708 467 l 25
 708 400 l 25xb010
 583 400 l 25xb020
 583 467 l 25xb010
83 400 m 25xa1
 208 400 l 25xa1
 208 334 l 25xc1
 83 334 l 25
 83 400 l 25xa1
208 400 m 25
 333 400 l 25xa080
 333 334 l 25xc080
 208 334 l 25xc1
 208 400 l 25
333 400 m 25
 458 400 l 25
 458 334 l 25xa040
 333 334 l 25xc080
 333 400 l 25
458 400 m 25
 583 400 l 25
 583 334 l 25xa020
 458 334 l 25
 458 400 l 25
583 400 m 25
 708 400 l 25
 708 334 l 25xa010
 583 334 l 25
 583 400 l 25
708 400 m 25
 833 400 l 25
 833 334 l 25xa008
 708 334 l 25
 708 400 l 25
583 334 m 25xa020
 708 334 l 25
 708 267 l 25
 583 267 l 25xa010
 583 334 l 25xa020
583 267 m 25
 708 267 l 25
 708 200 l 25
 583 200 l 25
 583 267 l 25
EndSplineSet
EndChar

StartChar: five
Encoding: 53 53 21
Width: 666
VWidth: 0
Flags: HW
HStem: 200 134<83 208> 200 67<208 458> 467 67<208 458> 534 21G<83 208> 600 67<208 583>
VStem: 83 125<200 334 467 667> 208 125<200 267 467 534 600 667> 333 125<200 267 467 534 600 667> 458 125<267 534 600 667>
LayerCount: 2
Fore
SplineSet
83 667 m 25x0c
 208 667 l 25
 208 600 l 25
 83 600 l 25
 83 667 l 25x0c
208 667 m 25
 333 667 l 25
 333 600 l 25x0a
 208 600 l 25
 208 667 l 25
333 667 m 25
 458 667 l 25
 458 600 l 25x09
 333 600 l 25
 333 667 l 25
458 667 m 25
 583 667 l 25
 583 600 l 25x0880
 458 600 l 25
 458 667 l 25
83 600 m 25x1c
 208 600 l 25
 208 534 l 25x2c
 83 534 l 25
 83 600 l 25x1c
83 534 m 25x1c
 208 534 l 25
 208 467 l 25
 83 467 l 25x2c
 83 534 l 25x1c
208 534 m 25
 333 534 l 25
 333 467 l 25x2a
 208 467 l 25
 208 534 l 25
333 534 m 25
 458 534 l 25
 458 467 l 25x29
 333 467 l 25
 333 534 l 25
458 534 m 25
 583 534 l 25x1880
 583 467 l 25x2880
 458 467 l 25
 458 534 l 25
458 467 m 25x29
 583 467 l 25
 583 400 l 25
 458 400 l 25x2880
 458 467 l 25x29
458 400 m 25
 583 400 l 25
 583 334 l 25
 458 334 l 25x8880
 458 400 l 25
83 334 m 25x8c
 208 334 l 25x8c
 208 267 l 25
 83 267 l 25x4c
 83 334 l 25x8c
458 334 m 25x8880
 583 334 l 25x8880
 583 267 l 25x4880
 458 267 l 25x49
 458 334 l 25x8880
83 267 m 25x4c
 208 267 l 25x4c
 208 200 l 25
 83 200 l 25x8c
 83 267 l 25x4c
208 267 m 25
 333 267 l 25
 333 200 l 25x4a
 208 200 l 25x8c
 208 267 l 25
333 267 m 25
 458 267 l 25
 458 200 l 25x49
 333 200 l 25
 333 267 l 25
EndSplineSet
EndChar

StartChar: six
Encoding: 54 54 22
Width: 666
VWidth: 0
Flags: HW
HStem: 200 67<208 458> 400 67<208 458> 514 20G<83 208> 534 66<458 583> 600 67<208 458>
VStem: 83 125<267 600> 208 125<200 267 400 467 600 667> 333 125<200 267 400 467 600 667> 458 125<200 467 534 600>
LayerCount: 2
Fore
SplineSet
208 667 m 25xca
 333 667 l 25
 333 600 l 25xca
 208 600 l 25xcc
 208 667 l 25xca
333 667 m 25
 458 667 l 25xc9
 458 600 l 25xd1
 333 600 l 25
 333 667 l 25
83 600 m 25xec
 208 600 l 25
 208 534 l 25
 83 534 l 25
 83 600 l 25xec
458 600 m 25xd1
 583 600 l 25
 583 534 l 25
 458 534 l 25xd080
 458 600 l 25xd1
83 534 m 25xe4
 208 534 l 25
 208 467 l 25
 83 467 l 25
 83 534 l 25xe4
83 467 m 25
 208 467 l 25
 208 400 l 25
 83 400 l 25
 83 467 l 25
208 467 m 25
 333 467 l 25
 333 400 l 25xc2
 208 400 l 25
 208 467 l 25
333 467 m 25
 458 467 l 25
 458 400 l 25xc1
 333 400 l 25
 333 467 l 25
458 467 m 25
 583 467 l 25
 583 400 l 25xc080
 458 400 l 25
 458 467 l 25
83 400 m 25xc4
 208 400 l 25
 208 334 l 25
 83 334 l 25
 83 400 l 25xc4
458 400 m 25xc1
 583 400 l 25
 583 334 l 25
 458 334 l 25xc080
 458 400 l 25xc1
83 334 m 25xc4
 208 334 l 25
 208 267 l 25
 83 267 l 25
 83 334 l 25xc4
458 334 m 25xc080
 583 334 l 25
 583 267 l 25xc080
 458 267 l 25xc1
 458 334 l 25xc080
208 267 m 25xc4
 333 267 l 25
 333 200 l 25
 208 200 l 25xc2
 208 267 l 25xc4
333 267 m 25
 458 267 l 25
 458 200 l 25xc1
 333 200 l 25
 333 267 l 25
458 267 m 25
 583 267 l 25
 583 200 l 25xc080
 458 200 l 25
 458 267 l 25
EndSplineSet
EndChar

StartChar: seven
Encoding: 55 55 23
Width: 666
VWidth: 0
Flags: HW
HStem: 200 200<208 333> 400 134<333 458> 534 133<458 583> 600 67<83 458>
VStem: 83 125<600 667> 208 125<200 400 600 667> 333 125<400 534 600 667> 458 125<534 667>
LayerCount: 2
Fore
SplineSet
83 667 m 25x18
 208 667 l 25
 208 600 l 25
 83 600 l 25
 83 667 l 25x18
208 667 m 25
 333 667 l 25
 333 600 l 25x14
 208 600 l 25
 208 667 l 25
333 667 m 25
 458 667 l 25x22
 458 600 l 25x12
 333 600 l 25
 333 667 l 25
458 667 m 25
 583 667 l 25x21
 583 600 l 25x11
 458 600 l 25x12
 458 667 l 25
458 600 m 25x52
 583 600 l 25x51
 583 534 l 25x21
 458 534 l 25
 458 600 l 25x52
333 534 m 25x42
 458 534 l 25
 458 467 l 25
 333 467 l 25
 333 534 l 25x42
333 467 m 25
 458 467 l 25
 458 400 l 25x42
 333 400 l 25x84
 333 467 l 25
208 400 m 25x84
 333 400 l 25
 333 334 l 25
 208 334 l 25
 208 400 l 25x84
208 334 m 25
 333 334 l 25
 333 267 l 25
 208 267 l 25
 208 334 l 25
208 267 m 25
 333 267 l 25
 333 200 l 25
 208 200 l 25
 208 267 l 25
EndSplineSet
EndChar

StartChar: eight
Encoding: 56 56 24
Width: 666
VWidth: 0
Flags: HW
HStem: 200 200<83 208 458 583> 200 67<208 458> 400 67<208 458> 467 200<83 208 458 583> 514 20G<83 208 458 583> 534 21G<83 208 458 583> 600 67<208 458>
VStem: 83 125<200 400 467 667> 208 125<200 267 400 467 600 667> 333 125<200 267 400 467 600 667> 458 125<200 400 467 667>
LayerCount: 2
Fore
SplineSet
83 667 m 25x11
 208 667 l 25x11
 208 600 l 25
 83 600 l 25x03
 83 667 l 25x11
208 667 m 25
 333 667 l 25
 333 600 l 25x0280
 208 600 l 25x03
 208 667 l 25
333 667 m 25
 458 667 l 25x1040
 458 600 l 25x0240
 333 600 l 25
 333 667 l 25
458 667 m 25
 583 667 l 25x1020
 583 600 l 25x0220
 458 600 l 25x0240
 458 667 l 25
83 600 m 25x0b
 208 600 l 25
 208 534 l 25
 83 534 l 25
 83 600 l 25x0b
458 600 m 25x0a40
 583 600 l 25
 583 534 l 25
 458 534 l 25x0a20
 458 600 l 25x0a40
83 534 m 25x09
 208 534 l 25
 208 467 l 25x29
 83 467 l 25x11
 83 534 l 25x09
458 534 m 25x2820
 583 534 l 25x2820
 583 467 l 25x1020
 458 467 l 25x2040
 458 534 l 25x2820
208 467 m 25x21
 333 467 l 25
 333 400 l 25x2080
 208 400 l 25x81
 208 467 l 25x21
333 467 m 25
 458 467 l 25x2040
 458 400 l 25x8040
 333 400 l 25
 333 467 l 25
83 400 m 25x81
 208 400 l 25
 208 334 l 25
 83 334 l 25
 83 400 l 25x81
458 400 m 25x8040
 583 400 l 25
 583 334 l 25
 458 334 l 25x8020
 458 400 l 25x8040
83 334 m 25x41
 208 334 l 25
 208 267 l 25
 83 267 l 25
 83 334 l 25x41
458 334 m 25x4020
 583 334 l 25
 583 267 l 25x4020
 458 267 l 25x4040
 458 334 l 25x4020
83 267 m 25x41
 208 267 l 25x41
 208 200 l 25
 83 200 l 25x81
 83 267 l 25x41
208 267 m 25
 333 267 l 25
 333 200 l 25x4080
 208 200 l 25x81
 208 267 l 25
333 267 m 25
 458 267 l 25x4040
 458 200 l 25x8040
 333 200 l 25
 333 267 l 25
458 267 m 25
 583 267 l 25x4020
 583 200 l 25x8020
 458 200 l 25x8040
 458 267 l 25
EndSplineSet
EndChar

StartChar: nine
Encoding: 57 57 25
Width: 666
VWidth: 0
Flags: HW
HStem: 200 134<83 208> 200 67<208 458> 400 67<208 458> 514 20G<83 208 458 583> 534 21G<83 208 458 583> 600 67<208 458>
VStem: 83 125<200 334 400 667> 208 125<200 267 400 467 600 667> 333 125<200 267 400 467 600 667> 458 125<267 600>
LayerCount: 2
Fore
SplineSet
83 667 m 25x26
 208 667 l 25
 208 600 l 25
 83 600 l 25
 83 667 l 25x26
208 667 m 25
 333 667 l 25
 333 600 l 25x25
 208 600 l 25
 208 667 l 25
333 667 m 25
 458 667 l 25
 458 600 l 25x2480
 333 600 l 25
 333 667 l 25
83 600 m 25x36
 208 600 l 25
 208 534 l 25
 83 534 l 25
 83 600 l 25x36
458 600 m 25x3480
 583 600 l 25
 583 534 l 25
 458 534 l 25x3440
 458 600 l 25x3480
83 534 m 25x36
 208 534 l 25
 208 467 l 25
 83 467 l 25
 83 534 l 25x36
458 534 m 25x3440
 583 534 l 25
 583 467 l 25x3440
 458 467 l 25x3480
 458 534 l 25x3440
83 467 m 25x26
 208 467 l 25
 208 400 l 25
 83 400 l 25
 83 467 l 25x26
208 467 m 25
 333 467 l 25
 333 400 l 25x25
 208 400 l 25
 208 467 l 25
333 467 m 25
 458 467 l 25
 458 400 l 25x2480
 333 400 l 25
 333 467 l 25
458 467 m 25
 583 467 l 25
 583 400 l 25x2440
 458 400 l 25
 458 467 l 25
458 400 m 25xa480
 583 400 l 25
 583 334 l 25
 458 334 l 25xa440
 458 400 l 25xa480
83 334 m 25xa6
 208 334 l 25xa6
 208 267 l 25
 83 267 l 25x66
 83 334 l 25xa6
458 334 m 25xa440
 583 334 l 25xa440
 583 267 l 25x6440
 458 267 l 25x6480
 458 334 l 25xa440
83 267 m 25x66
 208 267 l 25x66
 208 200 l 25
 83 200 l 25xa6
 83 267 l 25x66
208 267 m 25
 333 267 l 25
 333 200 l 25x65
 208 200 l 25xa6
 208 267 l 25
333 267 m 25
 458 267 l 25
 458 200 l 25x6480
 333 200 l 25
 333 267 l 25
EndSplineSet
EndChar

StartChar: colon
Encoding: 58 58 26
Width: 416
VWidth: 0
Flags: HW
HStem: 200 67<83 333> 467 67<83 333>
VStem: 83 125<200 267 467 534> 208 125<200 267 467 534>
LayerCount: 2
Fore
SplineSet
83 534 m 25xe0
 208 534 l 25
 208 467 l 25
 83 467 l 25
 83 534 l 25xe0
208 534 m 25
 333 534 l 25
 333 467 l 25xd0
 208 467 l 25
 208 534 l 25
83 267 m 25xe0
 208 267 l 25
 208 200 l 25
 83 200 l 25
 83 267 l 25xe0
208 267 m 25
 333 267 l 25
 333 200 l 25xd0
 208 200 l 25
 208 267 l 25
EndSplineSet
EndChar

StartChar: semicolon
Encoding: 59 59 27
Width: 416
VWidth: 0
Flags: HW
HStem: 67 200<83 208> 180 20G<83 208> 200 67<208 333> 467 67<83 333>
VStem: 83 125<67 267 467 534> 208 125<200 267 467 534>
LayerCount: 2
Fore
SplineSet
83 534 m 25x18
 208 534 l 25
 208 467 l 25
 83 467 l 25
 83 534 l 25x18
208 534 m 25
 333 534 l 25
 333 467 l 25x14
 208 467 l 25
 208 534 l 25
83 267 m 25x98
 208 267 l 25x98
 208 200 l 25
 83 200 l 25x58
 83 267 l 25x98
208 267 m 25
 333 267 l 25
 333 200 l 25x34
 208 200 l 25x58
 208 267 l 25
83 200 m 25x58
 208 200 l 25
 208 134 l 25
 83 134 l 25
 83 200 l 25x58
83 134 m 25
 208 134 l 25
 208 67 l 25
 83 67 l 25x98
 83 134 l 25
EndSplineSet
EndChar

StartChar: less
Encoding: 60 60 28
Width: 666
VWidth: 0
Flags: HW
HStem: 267 67<458 583> 334 66<208 458> 400 67<83 208> 467 67<208 458> 534 66<458 583>
VStem: 83 125<400 467> 208 125<334 400 467 534> 333 125<334 400 467 534> 458 125<267 334 534 600>
LayerCount: 2
Fore
SplineSet
458 600 m 25x0880
 583 600 l 25
 583 534 l 25x0880
 458 534 l 25x11
 458 600 l 25x0880
208 534 m 25x12
 333 534 l 25
 333 467 l 25x12
 208 467 l 25x24
 208 534 l 25x12
333 534 m 25
 458 534 l 25
 458 467 l 25x11
 333 467 l 25
 333 534 l 25
83 467 m 25x24
 208 467 l 25x24
 208 400 l 25x44
 83 400 l 25
 83 467 l 25x24
208 400 m 25x44
 333 400 l 25
 333 334 l 25
 208 334 l 25x42
 208 400 l 25x44
333 400 m 25
 458 400 l 25x41
 458 334 l 25x81
 333 334 l 25
 333 400 l 25
458 334 m 25x81
 583 334 l 25
 583 267 l 25
 458 267 l 25x8080
 458 334 l 25x81
EndSplineSet
EndChar

StartChar: equal
Encoding: 61 61 29
Width: 666
VWidth: 0
Flags: HW
HStem: 334 66<83 583> 467 67<83 583>
VStem: 83 125<334 400 467 534> 208 125<334 400 467 534> 333 125<334 400 467 534> 458 125<334 400 467 534>
LayerCount: 2
Fore
SplineSet
83 534 m 25xe0
 208 534 l 25
 208 467 l 25
 83 467 l 25
 83 534 l 25xe0
208 534 m 25
 333 534 l 25
 333 467 l 25xd0
 208 467 l 25
 208 534 l 25
333 534 m 25
 458 534 l 25
 458 467 l 25xc8
 333 467 l 25
 333 534 l 25
458 534 m 25
 583 534 l 25
 583 467 l 25xc4
 458 467 l 25
 458 534 l 25
83 400 m 25xe0
 208 400 l 25
 208 334 l 25
 83 334 l 25
 83 400 l 25xe0
208 400 m 25
 333 400 l 25
 333 334 l 25xd0
 208 334 l 25
 208 400 l 25
333 400 m 25
 458 400 l 25
 458 334 l 25xc8
 333 334 l 25
 333 400 l 25
458 400 m 25
 583 400 l 25
 583 334 l 25xc4
 458 334 l 25
 458 400 l 25
EndSplineSet
EndChar

StartChar: greater
Encoding: 62 62 30
Width: 666
VWidth: 0
Flags: HW
HStem: 267 67<83 208> 334 66<208 458> 400 67<458 583> 467 67<208 458> 534 66<83 208>
VStem: 83 125<267 334 534 600> 208 125<334 400 467 534> 333 125<334 400 467 534> 458 125<400 467>
LayerCount: 2
Fore
SplineSet
83 600 m 25x0c
 208 600 l 25x0c
 208 534 l 25x14
 83 534 l 25
 83 600 l 25x0c
208 534 m 25x14
 333 534 l 25
 333 467 l 25
 208 467 l 25x12
 208 534 l 25x14
333 534 m 25
 458 534 l 25x11
 458 467 l 25x21
 333 467 l 25
 333 534 l 25
458 467 m 25x21
 583 467 l 25
 583 400 l 25x2080
 458 400 l 25x41
 458 467 l 25x21
208 400 m 25x42
 333 400 l 25
 333 334 l 25x42
 208 334 l 25x84
 208 400 l 25x42
333 400 m 25
 458 400 l 25
 458 334 l 25x41
 333 334 l 25
 333 400 l 25
83 334 m 25x84
 208 334 l 25
 208 267 l 25
 83 267 l 25
 83 334 l 25x84
EndSplineSet
EndChar

StartChar: question
Encoding: 63 63 31
Width: 666
VWidth: 0
Flags: HW
HStem: 200 67<208 333> 334 66<208 333> 400 67<333 458> 467 200<458 583> 514 20G<458 583> 534 133<83 208> 600 67<208 458>
VStem: 83 125<534 667> 208 125<200 267 334 400 600 667> 333 125<400 467 600 667> 458 125<467 667>
LayerCount: 2
Fore
SplineSet
83 667 m 25x85
 208 667 l 25x85
 208 600 l 25
 83 600 l 25x83
 83 667 l 25x85
208 667 m 25
 333 667 l 25
 333 600 l 25x8280
 208 600 l 25x83
 208 667 l 25
333 667 m 25
 458 667 l 25x9040
 458 600 l 25x8240
 333 600 l 25
 333 667 l 25
458 667 m 25
 583 667 l 25x9020
 583 600 l 25x8220
 458 600 l 25x8240
 458 667 l 25
83 600 m 25x83
 208 600 l 25x83
 208 534 l 25
 83 534 l 25x85
 83 600 l 25x83
458 600 m 25x8a40
 583 600 l 25
 583 534 l 25
 458 534 l 25x8a20
 458 600 l 25x8a40
458 534 m 25
 583 534 l 25xa820
 583 467 l 25x9020
 458 467 l 25xa040
 458 534 l 25
333 467 m 25xa040
 458 467 l 25
 458 400 l 25xa040
 333 400 l 25xc080
 333 467 l 25xa040
208 400 m 25xc080
 333 400 l 25
 333 334 l 25
 208 334 l 25
 208 400 l 25xc080
208 267 m 25
 333 267 l 25
 333 200 l 25
 208 200 l 25
 208 267 l 25
EndSplineSet
EndChar

StartChar: at
Encoding: 64 64 32
Width: 916
VWidth: 0
Flags: HW
HStem: 134 133<208 333> 134 66<333 708> 200 21G<208 333> 267 67<333 458 583 708> 334 133<208 333> 334 66<458 583> 400 134<583 708> 467 67<333 583> 534 66<208 333> 600 67<333 708>
VStem: 83 125<267 534> 208 125<134 267 334 467 534 600> 333 125<134 200 267 334 467 534 600 667> 458 125<134 200 334 400 467 534 600 667> 583 125<134 200 267 334 400 534 600 667> 708 125<334 600>
LayerCount: 2
Fore
SplineSet
333 667 m 25x0048
 458 667 l 25
 458 600 l 25x0048
 333 600 l 25x0090
 333 667 l 25x0048
458 667 m 25
 583 667 l 25
 583 600 l 25x0044
 458 600 l 25
 458 667 l 25
583 667 m 25
 708 667 l 25
 708 600 l 25x0042
 583 600 l 25
 583 667 l 25
208 600 m 25x0090
 333 600 l 25x0090
 333 534 l 25x0110
 208 534 l 25x00a0
 208 600 l 25x0090
708 600 m 25x0242
 833 600 l 25x0241
 833 534 l 25x0081
 708 534 l 25
 708 600 l 25x0242
83 534 m 25x00a0
 208 534 l 25
 208 467 l 25x08a0
 83 467 l 25x0120
 83 534 l 25x00a0
333 534 m 25x0110
 458 534 l 25
 458 467 l 25x0108
 333 467 l 25x0810
 333 534 l 25x0110
458 534 m 25
 583 534 l 25x0204
 583 467 l 25x0104
 458 467 l 25
 458 534 l 25
583 534 m 25
 708 534 l 25x0202
 708 467 l 25x0102
 583 467 l 25x0104
 583 534 l 25
708 534 m 25
 833 534 l 25x0081
 833 467 l 25x0101
 708 467 l 25x0102
 708 534 l 25
83 467 m 25x0120
 208 467 l 25x0820
 208 400 l 25
 83 400 l 25x0220
 83 467 l 25x0120
208 467 m 25
 333 467 l 25x0810
 333 400 l 25x0210
 208 400 l 25x0220
 208 467 l 25
583 467 m 25x0504
 708 467 l 25x0502
 708 400 l 25x0202
 583 400 l 25
 583 467 l 25x0504
708 467 m 25
 833 467 l 25x0101
 833 400 l 25x0201
 708 400 l 25x0202
 708 467 l 25
83 400 m 25x0220
 208 400 l 25x0220
 208 334 l 25x0820
 83 334 l 25x0420
 83 400 l 25x0220
208 400 m 25
 333 400 l 25
 333 334 l 25x1210
 208 334 l 25x0820
 208 400 l 25
458 400 m 25x0404
 583 400 l 25x0404
 583 334 l 25x1004
 458 334 l 25x1008
 458 400 l 25x0404
708 400 m 25x1202
 833 400 l 25x1201
 833 334 l 25x0401
 708 334 l 25
 708 400 l 25x1202
83 334 m 25x0420
 208 334 l 25
 208 267 l 25x8820
 83 267 l 25x1020
 83 334 l 25x0420
333 334 m 25x1010
 458 334 l 25
 458 267 l 25x1008
 333 267 l 25x8010
 333 334 l 25x1010
583 334 m 25x1004
 708 334 l 25
 708 267 l 25
 583 267 l 25x1002
 583 334 l 25x1004
208 267 m 25x8020
 333 267 l 25x8010
 333 200 l 25x4010
 208 200 l 25x2010
 208 267 l 25x8020
208 200 m 25x2010
 333 200 l 25x4010
 333 134 l 25
 208 134 l 25x8010
 208 200 l 25x2010
333 200 m 25
 458 200 l 25
 458 134 l 25x4008
 333 134 l 25x8010
 333 200 l 25
458 200 m 25
 583 200 l 25
 583 134 l 25x4004
 458 134 l 25
 458 200 l 25
583 200 m 25
 708 200 l 25
 708 134 l 25x4002
 583 134 l 25
 583 200 l 25
EndSplineSet
EndChar

StartChar: A
Encoding: 65 65 33
Width: 916
VWidth: 0
Flags: HW
HStem: 200 134<83 208 708 833> 334 200<583 708> 334 133<208 333> 334 66<333 583> 467 200<333 458> 534 133<458 583>
VStem: 83 125<200 334> 208 125<334 467> 333 125<334 400 467 667> 458 125<334 400 534 667> 583 125<334 534> 708 125<200 334>
LayerCount: 2
Fore
SplineSet
333 667 m 25x0880
 458 667 l 25
 458 600 l 25
 333 600 l 25
 333 667 l 25x0880
458 667 m 25
 583 667 l 25
 583 600 l 25x0440
 458 600 l 25
 458 667 l 25
333 600 m 25x0480
 458 600 l 25
 458 534 l 25
 333 534 l 25
 333 600 l 25x0480
458 600 m 25
 583 600 l 25
 583 534 l 25x4040
 458 534 l 25
 458 600 l 25
333 534 m 25x2480
 458 534 l 25x2480
 458 467 l 25x0880
 333 467 l 25x21
 333 534 l 25x2480
583 534 m 25x4040
 708 534 l 25x4020
 708 467 l 25
 583 467 l 25x0820
 583 534 l 25x4040
208 467 m 25x21
 333 467 l 25x21
 333 400 l 25
 208 400 l 25x11
 208 467 l 25x21
583 467 m 25x1820
 708 467 l 25
 708 400 l 25x1820
 583 400 l 25x1840
 583 467 l 25x1820
208 400 m 25x11
 333 400 l 25x11
 333 334 l 25x21
 208 334 l 25x82
 208 400 l 25x11
333 400 m 25
 458 400 l 25
 458 334 l 25x1080
 333 334 l 25x21
 333 400 l 25
458 400 m 25
 583 400 l 25x1040
 583 334 l 25x4040
 458 334 l 25
 458 400 l 25
583 400 m 25
 708 400 l 25x1020
 708 334 l 25x8020
 583 334 l 25x4040
 583 400 l 25
83 334 m 25x82
 208 334 l 25
 208 267 l 25
 83 267 l 25
 83 334 l 25x82
708 334 m 25x8020
 833 334 l 25
 833 267 l 25
 708 267 l 25x8010
 708 334 l 25x8020
83 267 m 25x82
 208 267 l 25
 208 200 l 25
 83 200 l 25
 83 267 l 25x82
708 267 m 25x8010
 833 267 l 25
 833 200 l 25
 708 200 l 25
 708 267 l 25x8010
EndSplineSet
EndChar

StartChar: B
Encoding: 66 66 34
Width: 791
VWidth: 0
Flags: HW
HStem: 200 67<208 583> 267 133<583 708> 334 66<458 583> 400 67<208 458> 467 200<458 583> 514 20G<83 208 458 583> 534 21G<83 208 458 583> 600 67<208 458>
VStem: 83 125<200 667> 208 125<200 267 400 467 600 667> 333 125<200 267 400 467 600 667> 458 125<200 267 334 400 467 667> 583 125<267 400>
LayerCount: 2
Fore
SplineSet
83 667 m 25x0180
 208 667 l 25
 208 600 l 25
 83 600 l 25
 83 667 l 25x0180
208 667 m 25
 333 667 l 25
 333 600 l 25x0140
 208 600 l 25
 208 667 l 25
333 667 m 25
 458 667 l 25x0820
 458 600 l 25x0120
 333 600 l 25
 333 667 l 25
458 667 m 25
 583 667 l 25x0810
 583 600 l 25x0110
 458 600 l 25x0120
 458 667 l 25
83 600 m 25x0580
 208 600 l 25
 208 534 l 25
 83 534 l 25
 83 600 l 25x0580
458 600 m 25x0520
 583 600 l 25
 583 534 l 25
 458 534 l 25x0510
 458 600 l 25x0520
83 534 m 25x0480
 208 534 l 25
 208 467 l 25x1480
 83 467 l 25x0880
 83 534 l 25x0480
458 534 m 25x1410
 583 534 l 25x1410
 583 467 l 25x0810
 458 467 l 25x1020
 458 534 l 25x1410
83 467 m 25x0880
 208 467 l 25
 208 400 l 25
 83 400 l 25x1080
 83 467 l 25x0880
208 467 m 25
 333 467 l 25
 333 400 l 25x1040
 208 400 l 25
 208 467 l 25
333 467 m 25
 458 467 l 25x1020
 458 400 l 25x2020
 333 400 l 25
 333 467 l 25
83 400 m 25x1080
 208 400 l 25x1080
 208 334 l 25
 83 334 l 25x2080
 83 400 l 25x1080
458 400 m 25x2020
 583 400 l 25x4010
 583 334 l 25
 458 334 l 25x2010
 458 400 l 25x2020
583 400 m 25
 708 400 l 25x4008
 708 334 l 25x2008
 583 334 l 25x2010
 583 400 l 25
83 334 m 25x2080
 208 334 l 25
 208 267 l 25xa080
 83 267 l 25x4080
 83 334 l 25x2080
583 334 m 25xa010
 708 334 l 25xa008
 708 267 l 25x4008
 583 267 l 25
 583 334 l 25xa010
83 267 m 25x4080
 208 267 l 25
 208 200 l 25
 83 200 l 25x8080
 83 267 l 25x4080
208 267 m 25
 333 267 l 25
 333 200 l 25x8040
 208 200 l 25
 208 267 l 25
333 267 m 25
 458 267 l 25
 458 200 l 25x8020
 333 200 l 25
 333 267 l 25
458 267 m 25
 583 267 l 25
 583 200 l 25x8010
 458 200 l 25
 458 267 l 25
EndSplineSet
EndChar

StartChar: C
Encoding: 67 67 35
Width: 666
VWidth: 0
Flags: HW
HStem: 200 134<458 583> 200 67<208 458> 514 20G<83 208> 534 133<458 583> 600 67<208 458>
VStem: 83 125<267 600> 208 125<200 267 600 667> 333 125<200 267 600 667> 458 125<200 334 534 667>
LayerCount: 2
Fore
SplineSet
208 667 m 25x0a
 333 667 l 25
 333 600 l 25x0a
 208 600 l 25x0c
 208 667 l 25x0a
333 667 m 25
 458 667 l 25x11
 458 600 l 25x09
 333 600 l 25
 333 667 l 25
458 667 m 25
 583 667 l 25x1080
 583 600 l 25x0880
 458 600 l 25x09
 458 667 l 25
83 600 m 25x2c
 208 600 l 25
 208 534 l 25
 83 534 l 25
 83 600 l 25x2c
458 600 m 25x09
 583 600 l 25x0880
 583 534 l 25
 458 534 l 25x1080
 458 600 l 25x09
83 534 m 25x24
 208 534 l 25
 208 467 l 25
 83 467 l 25
 83 534 l 25x24
83 467 m 25
 208 467 l 25
 208 400 l 25
 83 400 l 25
 83 467 l 25
83 400 m 25
 208 400 l 25
 208 334 l 25
 83 334 l 25x84
 83 400 l 25
83 334 m 25
 208 334 l 25x84
 208 267 l 25
 83 267 l 25x44
 83 334 l 25
458 334 m 25x8080
 583 334 l 25x8080
 583 267 l 25x4080
 458 267 l 25x41
 458 334 l 25x8080
208 267 m 25x44
 333 267 l 25
 333 200 l 25
 208 200 l 25x42
 208 267 l 25x44
333 267 m 25
 458 267 l 25x41
 458 200 l 25x81
 333 200 l 25
 333 267 l 25
458 267 m 25
 583 267 l 25x4080
 583 200 l 25x8080
 458 200 l 25x81
 458 267 l 25
EndSplineSet
EndChar

StartChar: D
Encoding: 68 68 36
Width: 791
VWidth: 0
Flags: HW
HStem: 200 67<208 458> 267 133<458 583> 400 67<583 708> 467 133<458 583> 514 20G<83 208 458 583> 534 21G<83 208 458 583> 600 67<208 458>
VStem: 83 125<200 667> 208 125<200 267 600 667> 333 125<200 267 600 667> 458 125<267 400 467 600> 583 125<400 467>
LayerCount: 2
Fore
SplineSet
83 667 m 25x03
 208 667 l 25
 208 600 l 25
 83 600 l 25
 83 667 l 25x03
208 667 m 25
 333 667 l 25
 333 600 l 25x0280
 208 600 l 25
 208 667 l 25
333 667 m 25
 458 667 l 25x0240
 458 600 l 25x1040
 333 600 l 25
 333 667 l 25
83 600 m 25x0b
 208 600 l 25
 208 534 l 25
 83 534 l 25
 83 600 l 25x0b
458 600 m 25x1040
 583 600 l 25x1020
 583 534 l 25
 458 534 l 25x0820
 458 600 l 25x1040
83 534 m 25x09
 208 534 l 25x09
 208 467 l 25
 83 467 l 25x11
 83 534 l 25x09
458 534 m 25x0820
 583 534 l 25
 583 467 l 25x2820
 458 467 l 25x1020
 458 534 l 25x0820
83 467 m 25x11
 208 467 l 25x11
 208 400 l 25
 83 400 l 25x21
 83 467 l 25x11
583 467 m 25x2020
 708 467 l 25
 708 400 l 25x2010
 583 400 l 25x4020
 583 467 l 25x2020
83 400 m 25x21
 208 400 l 25
 208 334 l 25
 83 334 l 25
 83 400 l 25x21
458 400 m 25x4020
 583 400 l 25
 583 334 l 25
 458 334 l 25
 458 400 l 25x4020
83 334 m 25x41
 208 334 l 25
 208 267 l 25x81
 83 267 l 25
 83 334 l 25x41
458 334 m 25x8020
 583 334 l 25
 583 267 l 25x4020
 458 267 l 25x8040
 458 334 l 25x8020
83 267 m 25x41
 208 267 l 25
 208 200 l 25
 83 200 l 25x81
 83 267 l 25x41
208 267 m 25
 333 267 l 25
 333 200 l 25x8080
 208 200 l 25
 208 267 l 25
333 267 m 25
 458 267 l 25
 458 200 l 25x8040
 333 200 l 25
 333 267 l 25
EndSplineSet
EndChar

StartChar: E
Encoding: 69 69 37
Width: 666
VWidth: 0
Flags: HW
HStem: 200 67<208 583> 400 67<208 583> 514 20G<83 208> 534 21G<83 208> 600 67<208 583>
VStem: 83 125<200 667> 208 125<200 267 400 467 600 667> 333 125<200 267 400 467 600 667> 458 125<200 267 400 467 600 667>
LayerCount: 2
Fore
SplineSet
83 667 m 25xcc
 208 667 l 25
 208 600 l 25
 83 600 l 25
 83 667 l 25xcc
208 667 m 25
 333 667 l 25
 333 600 l 25xca
 208 600 l 25
 208 667 l 25
333 667 m 25
 458 667 l 25
 458 600 l 25xc9
 333 600 l 25
 333 667 l 25
458 667 m 25
 583 667 l 25
 583 600 l 25xc880
 458 600 l 25
 458 667 l 25
83 600 m 25xec
 208 600 l 25
 208 534 l 25
 83 534 l 25
 83 600 l 25xec
83 534 m 25
 208 534 l 25
 208 467 l 25
 83 467 l 25
 83 534 l 25
83 467 m 25
 208 467 l 25
 208 400 l 25
 83 400 l 25
 83 467 l 25
208 467 m 25
 333 467 l 25
 333 400 l 25xca
 208 400 l 25
 208 467 l 25
333 467 m 25
 458 467 l 25
 458 400 l 25xc9
 333 400 l 25
 333 467 l 25
458 467 m 25
 583 467 l 25
 583 400 l 25xc880
 458 400 l 25
 458 467 l 25
83 400 m 25xcc
 208 400 l 25
 208 334 l 25
 83 334 l 25
 83 400 l 25xcc
83 334 m 25
 208 334 l 25
 208 267 l 25
 83 267 l 25
 83 334 l 25
83 267 m 25
 208 267 l 25
 208 200 l 25
 83 200 l 25
 83 267 l 25
208 267 m 25
 333 267 l 25
 333 200 l 25xca
 208 200 l 25
 208 267 l 25
333 267 m 25
 458 267 l 25
 458 200 l 25xc9
 333 200 l 25
 333 267 l 25
458 267 m 25
 583 267 l 25
 583 200 l 25xc880
 458 200 l 25
 458 267 l 25
EndSplineSet
EndChar

StartChar: F
Encoding: 70 70 38
Width: 666
VWidth: 0
Flags: HW
HStem: 200 21G<83 208> 400 67<208 583> 514 20G<83 208> 534 21G<83 208> 600 67<208 583>
VStem: 83 125<200 667> 208 125<400 467 600 667> 333 125<400 467 600 667> 458 125<400 467 600 667>
LayerCount: 2
Fore
SplineSet
83 667 m 25xcc
 208 667 l 25
 208 600 l 25
 83 600 l 25
 83 667 l 25xcc
208 667 m 25
 333 667 l 25
 333 600 l 25xca
 208 600 l 25
 208 667 l 25
333 667 m 25
 458 667 l 25
 458 600 l 25xc9
 333 600 l 25
 333 667 l 25
458 667 m 25
 583 667 l 25
 583 600 l 25xc880
 458 600 l 25
 458 667 l 25
83 600 m 25xec
 208 600 l 25
 208 534 l 25
 83 534 l 25
 83 600 l 25xec
83 534 m 25
 208 534 l 25
 208 467 l 25
 83 467 l 25
 83 534 l 25
83 467 m 25
 208 467 l 25
 208 400 l 25
 83 400 l 25
 83 467 l 25
208 467 m 25
 333 467 l 25
 333 400 l 25xca
 208 400 l 25
 208 467 l 25
333 467 m 25
 458 467 l 25
 458 400 l 25xc9
 333 400 l 25
 333 467 l 25
458 467 m 25
 583 467 l 25
 583 400 l 25xc880
 458 400 l 25
 458 467 l 25
83 400 m 25xcc
 208 400 l 25
 208 334 l 25
 83 334 l 25
 83 400 l 25xcc
83 334 m 25
 208 334 l 25
 208 267 l 25
 83 267 l 25
 83 334 l 25
83 267 m 25
 208 267 l 25
 208 200 l 25
 83 200 l 25
 83 267 l 25
EndSplineSet
EndChar

StartChar: G
Encoding: 71 71 39
Width: 666
VWidth: 0
Flags: HW
HStem: 200 67<208 458> 400 67<333 458> 514 20G<83 208> 534 133<458 583> 600 67<208 458>
VStem: 83 125<267 600> 208 125<200 267 600 667> 333 125<200 267 400 467 600 667> 458 125<200 467 534 667>
LayerCount: 2
Fore
SplineSet
208 667 m 25xca
 333 667 l 25
 333 600 l 25xca
 208 600 l 25xcc
 208 667 l 25xca
333 667 m 25
 458 667 l 25xd1
 458 600 l 25xc9
 333 600 l 25
 333 667 l 25
458 667 m 25
 583 667 l 25xd080
 583 600 l 25xc880
 458 600 l 25xc9
 458 667 l 25
83 600 m 25xec
 208 600 l 25
 208 534 l 25
 83 534 l 25
 83 600 l 25xec
458 600 m 25xc9
 583 600 l 25xc880
 583 534 l 25
 458 534 l 25xd080
 458 600 l 25xc9
83 534 m 25xe4
 208 534 l 25
 208 467 l 25
 83 467 l 25
 83 534 l 25xe4
83 467 m 25
 208 467 l 25
 208 400 l 25
 83 400 l 25
 83 467 l 25
333 467 m 25xc1
 458 467 l 25
 458 400 l 25
 333 400 l 25
 333 467 l 25xc1
458 467 m 25
 583 467 l 25
 583 400 l 25xc080
 458 400 l 25
 458 467 l 25
83 400 m 25xc4
 208 400 l 25
 208 334 l 25
 83 334 l 25
 83 400 l 25xc4
458 400 m 25xc1
 583 400 l 25
 583 334 l 25
 458 334 l 25xc080
 458 400 l 25xc1
83 334 m 25xc4
 208 334 l 25
 208 267 l 25
 83 267 l 25
 83 334 l 25xc4
458 334 m 25xc080
 583 334 l 25
 583 267 l 25xc080
 458 267 l 25xc1
 458 334 l 25xc080
208 267 m 25xc4
 333 267 l 25
 333 200 l 25
 208 200 l 25xc2
 208 267 l 25xc4
333 267 m 25
 458 267 l 25
 458 200 l 25xc1
 333 200 l 25
 333 267 l 25
458 267 m 25
 583 267 l 25
 583 200 l 25xc080
 458 200 l 25
 458 267 l 25
EndSplineSet
EndChar

StartChar: H
Encoding: 72 72 40
Width: 666
VWidth: 0
Flags: HW
HStem: 200 21G<83 208 458 583> 400 67<208 458> 514 20G<83 208 458 583> 534 21G<83 208 458 583> 647 20G<83 208 458 583>
VStem: 83 125<200 667> 208 125<400 467> 333 125<400 467> 458 125<200 667>
LayerCount: 2
Fore
SplineSet
83 667 m 25xcc
 208 667 l 25
 208 600 l 25
 83 600 l 25
 83 667 l 25xcc
458 667 m 25xc880
 583 667 l 25
 583 600 l 25
 458 600 l 25
 458 667 l 25xc880
83 600 m 25xec
 208 600 l 25
 208 534 l 25
 83 534 l 25
 83 600 l 25xec
458 600 m 25xe880
 583 600 l 25
 583 534 l 25
 458 534 l 25
 458 600 l 25xe880
83 534 m 25xec
 208 534 l 25
 208 467 l 25
 83 467 l 25
 83 534 l 25xec
458 534 m 25xe880
 583 534 l 25
 583 467 l 25xe880
 458 467 l 25xe9
 458 534 l 25xe880
83 467 m 25xcc
 208 467 l 25
 208 400 l 25
 83 400 l 25
 83 467 l 25xcc
208 467 m 25
 333 467 l 25
 333 400 l 25xca
 208 400 l 25
 208 467 l 25
333 467 m 25
 458 467 l 25
 458 400 l 25xc9
 333 400 l 25
 333 467 l 25
458 467 m 25
 583 467 l 25
 583 400 l 25xc880
 458 400 l 25
 458 467 l 25
83 400 m 25xcc
 208 400 l 25
 208 334 l 25
 83 334 l 25
 83 400 l 25xcc
458 400 m 25xc9
 583 400 l 25
 583 334 l 25
 458 334 l 25xc880
 458 400 l 25xc9
83 334 m 25xcc
 208 334 l 25
 208 267 l 25
 83 267 l 25
 83 334 l 25xcc
458 334 m 25xc880
 583 334 l 25
 583 267 l 25
 458 267 l 25
 458 334 l 25xc880
83 267 m 25xcc
 208 267 l 25
 208 200 l 25
 83 200 l 25
 83 267 l 25xcc
458 267 m 25xc880
 583 267 l 25
 583 200 l 25
 458 200 l 25
 458 267 l 25xc880
EndSplineSet
EndChar

StartChar: I
Encoding: 73 73 41
Width: 666
VWidth: 0
Flags: HW
HStem: 200 67<83 208 333 583> 514 20G<208 333> 534 21G<208 333> 600 67<83 208 333 583>
VStem: 83 125<200 267 600 667> 208 125<200 667> 333 125<200 267 600 667> 458 125<200 267 600 667>
LayerCount: 2
Fore
SplineSet
83 667 m 25x98
 208 667 l 25
 208 600 l 25
 83 600 l 25
 83 667 l 25x98
208 667 m 25
 333 667 l 25
 333 600 l 25x94
 208 600 l 25
 208 667 l 25
333 667 m 25
 458 667 l 25
 458 600 l 25x92
 333 600 l 25
 333 667 l 25
458 667 m 25
 583 667 l 25
 583 600 l 25x91
 458 600 l 25
 458 667 l 25
208 600 m 25xd8
 333 600 l 25
 333 534 l 25
 208 534 l 25xd4
 208 600 l 25xd8
208 534 m 25
 333 534 l 25
 333 467 l 25
 208 467 l 25
 208 534 l 25
208 467 m 25
 333 467 l 25
 333 400 l 25
 208 400 l 25
 208 467 l 25
208 400 m 25
 333 400 l 25
 333 334 l 25
 208 334 l 25
 208 400 l 25
208 334 m 25
 333 334 l 25
 333 267 l 25x94
 208 267 l 25x98
 208 334 l 25
83 267 m 25x98
 208 267 l 25
 208 200 l 25
 83 200 l 25
 83 267 l 25x98
208 267 m 25
 333 267 l 25
 333 200 l 25x94
 208 200 l 25
 208 267 l 25
333 267 m 25
 458 267 l 25
 458 200 l 25x92
 333 200 l 25
 333 267 l 25
458 267 m 25
 583 267 l 25
 583 200 l 25x91
 458 200 l 25
 458 267 l 25
EndSplineSet
EndChar

StartChar: J
Encoding: 74 74 42
Width: 666
VWidth: 0
Flags: HW
HStem: 200 134<83 208> 200 67<208 458> 514 20G<458 583> 534 21G<458 583> 600 67<208 458>
VStem: 83 125<200 334> 208 125<200 267 600 667> 333 125<200 267 600 667> 458 125<267 667>
LayerCount: 2
Fore
SplineSet
208 667 m 25x0a
 333 667 l 25
 333 600 l 25
 208 600 l 25
 208 667 l 25x0a
333 667 m 25
 458 667 l 25
 458 600 l 25x09
 333 600 l 25
 333 667 l 25
458 667 m 25
 583 667 l 25
 583 600 l 25x0880
 458 600 l 25
 458 667 l 25
458 600 m 25x29
 583 600 l 25
 583 534 l 25
 458 534 l 25x2880
 458 600 l 25x29
458 534 m 25
 583 534 l 25
 583 467 l 25
 458 467 l 25
 458 534 l 25
458 467 m 25
 583 467 l 25
 583 400 l 25
 458 400 l 25
 458 467 l 25
458 400 m 25
 583 400 l 25
 583 334 l 25
 458 334 l 25x8880
 458 400 l 25
83 334 m 25x8c
 208 334 l 25x8c
 208 267 l 25
 83 267 l 25x4c
 83 334 l 25x8c
458 334 m 25x8880
 583 334 l 25x8880
 583 267 l 25x4880
 458 267 l 25x49
 458 334 l 25x8880
83 267 m 25x4c
 208 267 l 25x4c
 208 200 l 25
 83 200 l 25x8c
 83 267 l 25x4c
208 267 m 25
 333 267 l 25
 333 200 l 25x4a
 208 200 l 25x8c
 208 267 l 25
333 267 m 25
 458 267 l 25
 458 200 l 25x49
 333 200 l 25
 333 267 l 25
EndSplineSet
EndChar

StartChar: K
Encoding: 75 75 43
Width: 791
VWidth: 0
Flags: HW
HStem: 200 67<583 708> 267 67<458 583> 400 67<208 333> 514 20G<83 208 333 458> 534 21G<83 208 333 458> 600 67<458 583>
VStem: 83 125<200 667> 208 125<400 467> 333 125<334 600> 458 125<267 334 600 667> 583 125<200 267>
LayerCount: 2
Fore
SplineSet
83 667 m 25x26
 208 667 l 25
 208 600 l 25
 83 600 l 25
 83 667 l 25x26
458 667 m 25x2440
 583 667 l 25
 583 600 l 25x2440
 458 600 l 25x2480
 458 667 l 25x2440
83 600 m 25x36
 208 600 l 25
 208 534 l 25
 83 534 l 25
 83 600 l 25x36
333 600 m 25x3480
 458 600 l 25
 458 534 l 25
 333 534 l 25
 333 600 l 25x3480
83 534 m 25x36
 208 534 l 25
 208 467 l 25
 83 467 l 25
 83 534 l 25x36
333 534 m 25x3480
 458 534 l 25
 458 467 l 25x3480
 333 467 l 25x35
 333 534 l 25x3480
83 467 m 25x26
 208 467 l 25
 208 400 l 25
 83 400 l 25
 83 467 l 25x26
208 467 m 25
 333 467 l 25
 333 400 l 25x25
 208 400 l 25
 208 467 l 25
333 467 m 25
 458 467 l 25
 458 400 l 25x2480
 333 400 l 25
 333 467 l 25
83 400 m 25x66
 208 400 l 25
 208 334 l 25
 83 334 l 25
 83 400 l 25x66
333 400 m 25x65
 458 400 l 25
 458 334 l 25
 333 334 l 25x6480
 333 400 l 25x65
83 334 m 25x66
 208 334 l 25
 208 267 l 25
 83 267 l 25
 83 334 l 25x66
458 334 m 25x6480
 583 334 l 25x6440
 583 267 l 25xa440
 458 267 l 25x6440
 458 334 l 25x6480
83 267 m 25x66
 208 267 l 25x66
 208 200 l 25
 83 200 l 25xa6
 83 267 l 25x66
583 267 m 25xa440
 708 267 l 25
 708 200 l 25
 583 200 l 25xa420
 583 267 l 25xa440
EndSplineSet
EndChar

StartChar: L
Encoding: 76 76 44
Width: 666
VWidth: 0
Flags: HW
HStem: 200 67<208 583> 514 20G<83 208> 534 21G<83 208> 647 20G<83 208>
VStem: 83 125<200 667> 208 125<200 267> 333 125<200 267> 458 125<200 267>
LayerCount: 2
Fore
SplineSet
83 667 m 25x98
 208 667 l 25
 208 600 l 25
 83 600 l 25
 83 667 l 25x98
83 600 m 25
 208 600 l 25
 208 534 l 25
 83 534 l 25xd8
 83 600 l 25
83 534 m 25
 208 534 l 25
 208 467 l 25
 83 467 l 25
 83 534 l 25
83 467 m 25
 208 467 l 25
 208 400 l 25
 83 400 l 25
 83 467 l 25
83 400 m 25
 208 400 l 25
 208 334 l 25
 83 334 l 25
 83 400 l 25
83 334 m 25
 208 334 l 25
 208 267 l 25
 83 267 l 25
 83 334 l 25
83 267 m 25
 208 267 l 25
 208 200 l 25
 83 200 l 25
 83 267 l 25
208 267 m 25
 333 267 l 25
 333 200 l 25x94
 208 200 l 25
 208 267 l 25
333 267 m 25
 458 267 l 25
 458 200 l 25x92
 333 200 l 25
 333 267 l 25
458 267 m 25
 583 267 l 25
 583 200 l 25x91
 458 200 l 25
 458 267 l 25
EndSplineSet
EndChar

StartChar: M
Encoding: 77 77 45
Width: 666
VWidth: 0
Flags: HW
HStem: 200 21G<83 208 458 583> 334 200<333 458> 400 134<208 333> 534 21G<83 208 458 583> 647 20G<83 208 458 583>
VStem: 83 125<200 667> 208 125<400 534> 333 125<334 534> 458 125<200 667>
LayerCount: 2
Fore
SplineSet
83 667 m 25x8c
 208 667 l 25
 208 600 l 25
 83 600 l 25
 83 667 l 25x8c
458 667 m 25x8880
 583 667 l 25
 583 600 l 25
 458 600 l 25
 458 667 l 25x8880
83 600 m 25x9c
 208 600 l 25
 208 534 l 25xac
 83 534 l 25
 83 600 l 25x9c
458 600 m 25xc880
 583 600 l 25
 583 534 l 25x9880
 458 534 l 25xc9
 458 600 l 25xc880
83 534 m 25x9c
 208 534 l 25xac
 208 467 l 25
 83 467 l 25
 83 534 l 25x9c
208 534 m 25
 333 534 l 25
 333 467 l 25xca
 208 467 l 25
 208 534 l 25
333 534 m 25
 458 534 l 25
 458 467 l 25xc9
 333 467 l 25
 333 534 l 25
458 534 m 25
 583 534 l 25
 583 467 l 25x9880
 458 467 l 25
 458 534 l 25
83 467 m 25xac
 208 467 l 25
 208 400 l 25
 83 400 l 25
 83 467 l 25xac
208 467 m 25
 333 467 l 25
 333 400 l 25xaa
 208 400 l 25
 208 467 l 25
333 467 m 25
 458 467 l 25
 458 400 l 25xa9
 333 400 l 25
 333 467 l 25
458 467 m 25
 583 467 l 25
 583 400 l 25xa880
 458 400 l 25
 458 467 l 25
83 400 m 25xac
 208 400 l 25xac
 208 334 l 25
 83 334 l 25xcc
 83 400 l 25xac
333 400 m 25xaa
 458 400 l 25xa9
 458 334 l 25
 333 334 l 25xc9
 333 400 l 25xaa
458 400 m 25
 583 400 l 25xa880
 583 334 l 25xc880
 458 334 l 25xc9
 458 400 l 25
83 334 m 25xcc
 208 334 l 25
 208 267 l 25
 83 267 l 25
 83 334 l 25xcc
458 334 m 25xc9
 583 334 l 25
 583 267 l 25
 458 267 l 25xc880
 458 334 l 25xc9
83 267 m 25x8c
 208 267 l 25
 208 200 l 25
 83 200 l 25
 83 267 l 25x8c
458 267 m 25x8880
 583 267 l 25
 583 200 l 25
 458 200 l 25
 458 267 l 25x8880
EndSplineSet
EndChar

StartChar: N
Encoding: 78 78 46
Width: 666
VWidth: 0
Flags: HW
HStem: 200 21G<83 208 458 583> 267 133<333 458> 400 200<208 333> 514 20G<83 208 208 333 458 583> 534 21G<83 208 208 333 458 583> 647 20G<83 208 458 583>
VStem: 83 125<200 667> 208 125<400 600> 333 125<267 400> 458 125<200 667>
LayerCount: 2
Fore
SplineSet
83 667 m 25xa6
 208 667 l 25
 208 600 l 25
 83 600 l 25
 83 667 l 25xa6
458 667 m 25xa440
 583 667 l 25
 583 600 l 25
 458 600 l 25
 458 667 l 25xa440
83 600 m 25xa6
 208 600 l 25xa6
 208 534 l 25
 83 534 l 25x96
 83 600 l 25xa6
208 600 m 25
 333 600 l 25xa5
 333 534 l 25x95
 208 534 l 25x96
 208 600 l 25
458 600 m 25xa440
 583 600 l 25xa440
 583 534 l 25
 458 534 l 25x9440
 458 600 l 25xa440
83 534 m 25x96
 208 534 l 25
 208 467 l 25
 83 467 l 25
 83 534 l 25x96
208 534 m 25
 333 534 l 25
 333 467 l 25x95
 208 467 l 25
 208 534 l 25
458 534 m 25x9440
 583 534 l 25
 583 467 l 25
 458 467 l 25
 458 534 l 25x9440
83 467 m 25xa6
 208 467 l 25
 208 400 l 25
 83 400 l 25
 83 467 l 25xa6
208 467 m 25
 333 467 l 25
 333 400 l 25xc5
 208 400 l 25
 208 467 l 25
458 467 m 25xc440
 583 467 l 25
 583 400 l 25xa440
 458 400 l 25xc480
 458 467 l 25xc440
83 400 m 25xa6
 208 400 l 25
 208 334 l 25
 83 334 l 25
 83 400 l 25xa6
333 400 m 25xc5
 458 400 l 25
 458 334 l 25
 333 334 l 25xc480
 333 400 l 25xc5
458 400 m 25
 583 400 l 25
 583 334 l 25xa440
 458 334 l 25
 458 400 l 25
83 334 m 25xc6
 208 334 l 25
 208 267 l 25
 83 267 l 25
 83 334 l 25xc6
333 334 m 25xc480
 458 334 l 25
 458 267 l 25
 333 267 l 25
 333 334 l 25xc480
458 334 m 25
 583 334 l 25
 583 267 l 25xc440
 458 267 l 25
 458 334 l 25
83 267 m 25xc6
 208 267 l 25
 208 200 l 25
 83 200 l 25
 83 267 l 25xc6
458 267 m 25xc480
 583 267 l 25
 583 200 l 25
 458 200 l 25xc440
 458 267 l 25xc480
EndSplineSet
EndChar

StartChar: O
Encoding: 79 79 47
Width: 916
VWidth: 0
Flags: HW
HStem: 200 67<333 583> 267 133<208 333 583 708> 400 67<83 208 708 833> 467 200<208 333 583 708> 514 20G<208 333 583 708> 534 21G<208 333 583 708> 600 67<333 583>
VStem: 83 125<400 467> 208 125<267 400 467 667> 333 125<200 267 600 667> 458 125<200 267 600 667> 583 125<267 400 467 667> 708 125<400 467>
LayerCount: 2
Fore
SplineSet
208 667 m 25x1080
 333 667 l 25x1080
 333 600 l 25
 208 600 l 25x0280
 208 667 l 25x1080
333 667 m 25
 458 667 l 25
 458 600 l 25x0240
 333 600 l 25x0280
 333 667 l 25
458 667 m 25
 583 667 l 25x1020
 583 600 l 25x0220
 458 600 l 25
 458 667 l 25
583 667 m 25
 708 667 l 25x1010
 708 600 l 25x0210
 583 600 l 25x0220
 583 667 l 25
208 600 m 25x0a80
 333 600 l 25
 333 534 l 25
 208 534 l 25
 208 600 l 25x0a80
583 600 m 25x0a20
 708 600 l 25
 708 534 l 25
 583 534 l 25x0a10
 583 600 l 25x0a20
208 534 m 25x2880
 333 534 l 25x2880
 333 467 l 25x1080
 208 467 l 25x21
 208 534 l 25x2880
583 534 m 25x0810
 708 534 l 25
 708 467 l 25x2810
 583 467 l 25x1010
 583 534 l 25x0810
83 467 m 25x21
 208 467 l 25x21
 208 400 l 25x41
 83 400 l 25
 83 467 l 25x21
708 467 m 25x2010
 833 467 l 25
 833 400 l 25x2008
 708 400 l 25x4010
 708 467 l 25x2010
208 400 m 25x41
 333 400 l 25
 333 334 l 25
 208 334 l 25x4080
 208 400 l 25x41
583 400 m 25x4010
 708 400 l 25
 708 334 l 25
 583 334 l 25
 583 400 l 25x4010
208 334 m 25x4080
 333 334 l 25
 333 267 l 25x8080
 208 267 l 25
 208 334 l 25x4080
583 334 m 25x8010
 708 334 l 25
 708 267 l 25x4010
 583 267 l 25x8020
 583 334 l 25x8010
333 267 m 25x8080
 458 267 l 25
 458 200 l 25
 333 200 l 25x8040
 333 267 l 25x8080
458 267 m 25
 583 267 l 25
 583 200 l 25x8020
 458 200 l 25
 458 267 l 25
EndSplineSet
EndChar

StartChar: P
Encoding: 80 80 48
Width: 666
VWidth: 0
Flags: HW
HStem: 200 21G<83 208> 400 67<208 458> 514 20G<83 208 458 583> 534 21G<83 208 458 583> 600 67<208 458>
VStem: 83 125<200 667> 208 125<400 467 600 667> 333 125<400 467 600 667> 458 125<400 667>
LayerCount: 2
Fore
SplineSet
83 667 m 25xcc
 208 667 l 25
 208 600 l 25
 83 600 l 25
 83 667 l 25xcc
208 667 m 25
 333 667 l 25
 333 600 l 25xca
 208 600 l 25
 208 667 l 25
333 667 m 25
 458 667 l 25
 458 600 l 25xc9
 333 600 l 25
 333 667 l 25
458 667 m 25
 583 667 l 25
 583 600 l 25xc880
 458 600 l 25
 458 667 l 25
83 600 m 25xec
 208 600 l 25
 208 534 l 25
 83 534 l 25
 83 600 l 25xec
458 600 m 25xe9
 583 600 l 25
 583 534 l 25
 458 534 l 25xe880
 458 600 l 25xe9
83 534 m 25xec
 208 534 l 25
 208 467 l 25
 83 467 l 25
 83 534 l 25xec
458 534 m 25xe880
 583 534 l 25
 583 467 l 25xe880
 458 467 l 25xe9
 458 534 l 25xe880
83 467 m 25xcc
 208 467 l 25
 208 400 l 25
 83 400 l 25
 83 467 l 25xcc
208 467 m 25
 333 467 l 25
 333 400 l 25xca
 208 400 l 25
 208 467 l 25
333 467 m 25
 458 467 l 25
 458 400 l 25xc9
 333 400 l 25
 333 467 l 25
458 467 m 25
 583 467 l 25
 583 400 l 25xc880
 458 400 l 25
 458 467 l 25
83 400 m 25xcc
 208 400 l 25
 208 334 l 25
 83 334 l 25
 83 400 l 25xcc
83 334 m 25
 208 334 l 25
 208 267 l 25
 83 267 l 25
 83 334 l 25
83 267 m 25
 208 267 l 25
 208 200 l 25
 83 200 l 25
 83 267 l 25
EndSplineSet
EndChar

StartChar: Q
Encoding: 81 81 49
Width: 916
VWidth: 0
Flags: HW
HStem: 67 67<583 833> 180 20G<458 583> 200 67<333 458> 267 133<583 708> 400 67<83 208 708 833> 467 200<208 333 583 708> 514 20G<208 333 583 708> 534 21G<208 333 583 708> 600 67<333 583>
VStem: 83 125<400 467> 208 125<200 400 467 667> 333 125<200 267 600 667> 458 125<67 267 600 667> 583 125<67 134 267 400 467 667> 708 125<67 134 400 467>
LayerCount: 2
Fore
SplineSet
208 667 m 25x8420
 333 667 l 25x8420
 333 600 l 25
 208 600 l 25x80a0
 208 667 l 25x8420
333 667 m 25
 458 667 l 25
 458 600 l 25x8090
 333 600 l 25x80a0
 333 667 l 25
458 667 m 25
 583 667 l 25x8408
 583 600 l 25x8088
 458 600 l 25
 458 667 l 25
583 667 m 25
 708 667 l 25x8404
 708 600 l 25x8084
 583 600 l 25x8088
 583 667 l 25
208 600 m 25x82a0
 333 600 l 25
 333 534 l 25
 208 534 l 25
 208 600 l 25x82a0
583 600 m 25x8288
 708 600 l 25
 708 534 l 25
 583 534 l 25x8284
 583 600 l 25x8288
208 534 m 25x8a20
 333 534 l 25x8a20
 333 467 l 25x8420
 208 467 l 25x8840
 208 534 l 25x8a20
583 534 m 25x8204
 708 534 l 25
 708 467 l 25x8a04
 583 467 l 25x8404
 583 534 l 25x8204
83 467 m 25x8840
 208 467 l 25
 208 400 l 25
 83 400 l 25
 83 467 l 25x8840
708 467 m 25x8804
 833 467 l 25
 833 400 l 25x8802
 708 400 l 25x9004
 708 467 l 25x8804
208 400 m 25x8840
 333 400 l 25
 333 334 l 25
 208 334 l 25x8820
 208 400 l 25x8840
583 400 m 25x9004
 708 400 l 25
 708 334 l 25
 583 334 l 25
 583 400 l 25x9004
208 334 m 25x9020
 333 334 l 25
 333 267 l 25xa020
 208 267 l 25
 208 334 l 25x9020
583 334 m 25x9004
 708 334 l 25
 708 267 l 25x9004
 583 267 l 25x9008
 583 334 l 25x9004
208 267 m 25x9020
 333 267 l 25
 333 200 l 25
 208 200 l 25xa020
 208 267 l 25x9020
333 267 m 25
 458 267 l 25xa010
 458 200 l 25xc010
 333 200 l 25
 333 267 l 25
458 267 m 25
 583 267 l 25
 583 200 l 25xd008
 458 200 l 25xd010
 458 267 l 25
458 200 m 25xc010
 583 200 l 25
 583 134 l 25
 458 134 l 25xc008
 458 200 l 25xc010
458 134 m 25
 583 134 l 25
 583 67 l 25
 458 67 l 25
 458 134 l 25
583 134 m 25
 708 134 l 25
 708 67 l 25x8004
 583 67 l 25
 583 134 l 25
708 134 m 25
 833 134 l 25
 833 67 l 25x8002
 708 67 l 25
 708 134 l 25
EndSplineSet
EndChar

StartChar: R
Encoding: 82 82 50
Width: 666
VWidth: 0
Flags: HW
HStem: 200 134<458 583> 334 133<333 458> 400 67<208 333> 514 20G<83 208 458 583> 534 21G<83 208 458 583> 600 67<208 458>
VStem: 83 125<200 667> 208 125<400 467 600 667> 333 125<334 467 600 667> 458 125<200 334 400 667>
LayerCount: 2
Fore
SplineSet
83 667 m 25x06
 208 667 l 25
 208 600 l 25
 83 600 l 25
 83 667 l 25x06
208 667 m 25
 333 667 l 25
 333 600 l 25x05
 208 600 l 25
 208 667 l 25
333 667 m 25
 458 667 l 25
 458 600 l 25x0480
 333 600 l 25
 333 667 l 25
458 667 m 25
 583 667 l 25
 583 600 l 25x0440
 458 600 l 25
 458 667 l 25
83 600 m 25x16
 208 600 l 25
 208 534 l 25
 83 534 l 25
 83 600 l 25x16
458 600 m 25x1480
 583 600 l 25
 583 534 l 25
 458 534 l 25x1440
 458 600 l 25x1480
83 534 m 25x36
 208 534 l 25
 208 467 l 25
 83 467 l 25
 83 534 l 25x36
458 534 m 25x5440
 583 534 l 25
 583 467 l 25x3440
 458 467 l 25x4480
 458 534 l 25x5440
83 467 m 25x26
 208 467 l 25
 208 400 l 25
 83 400 l 25
 83 467 l 25x26
208 467 m 25
 333 467 l 25x45
 333 400 l 25x25
 208 400 l 25
 208 467 l 25
333 467 m 25
 458 467 l 25x4480
 458 400 l 25x2480
 333 400 l 25x25
 333 467 l 25
458 467 m 25
 583 467 l 25
 583 400 l 25x2440
 458 400 l 25x2480
 458 467 l 25
83 400 m 25x26
 208 400 l 25x26
 208 334 l 25
 83 334 l 25x46
 83 400 l 25x26
333 400 m 25x25
 458 400 l 25
 458 334 l 25xa480
 333 334 l 25x4480
 333 400 l 25x25
83 334 m 25x46
 208 334 l 25
 208 267 l 25
 83 267 l 25
 83 334 l 25x46
458 334 m 25x8480
 583 334 l 25
 583 267 l 25
 458 267 l 25x8440
 458 334 l 25x8480
83 267 m 25x86
 208 267 l 25
 208 200 l 25
 83 200 l 25
 83 267 l 25x86
458 267 m 25x8440
 583 267 l 25
 583 200 l 25
 458 200 l 25
 458 267 l 25x8440
EndSplineSet
EndChar

StartChar: S
Encoding: 83 83 51
Width: 791
VWidth: 0
Flags: HW
HStem: 200 67<333 583> 267 67<83 208> 400 67<333 583> 467 200<208 333> 514 20G<208 333> 534 133<583 708> 600 67<333 583>
VStem: 83 125<267 334> 208 125<200 334 467 667> 333 125<200 267 400 467 600 667> 458 125<200 267 400 467 600 667> 583 125<200 467 534 667>
LayerCount: 2
Fore
SplineSet
208 667 m 25x1080
 333 667 l 25x1080
 333 600 l 25
 208 600 l 25x0280
 208 667 l 25x1080
333 667 m 25
 458 667 l 25
 458 600 l 25x0240
 333 600 l 25x0280
 333 667 l 25
458 667 m 25
 583 667 l 25x0420
 583 600 l 25x0220
 458 600 l 25
 458 667 l 25
583 667 m 25
 708 667 l 25x0410
 708 600 l 25x0210
 583 600 l 25x0220
 583 667 l 25
208 600 m 25x0a80
 333 600 l 25
 333 534 l 25
 208 534 l 25
 208 600 l 25x0a80
583 600 m 25x0220
 708 600 l 25x0210
 708 534 l 25
 583 534 l 25x0410
 583 600 l 25x0220
208 534 m 25x0880
 333 534 l 25
 333 467 l 25x2880
 208 467 l 25x1080
 208 534 l 25x0880
333 467 m 25
 458 467 l 25
 458 400 l 25
 333 400 l 25x2040
 333 467 l 25
458 467 m 25
 583 467 l 25
 583 400 l 25x2020
 458 400 l 25
 458 467 l 25
583 467 m 25
 708 467 l 25x1010
 708 400 l 25x2010
 583 400 l 25
 583 467 l 25
583 400 m 25x6020
 708 400 l 25
 708 334 l 25
 583 334 l 25x6010
 583 400 l 25x6020
83 334 m 25x41
 208 334 l 25
 208 267 l 25
 83 267 l 25
 83 334 l 25x41
208 334 m 25
 333 334 l 25x4080
 333 267 l 25x8080
 208 267 l 25
 208 334 l 25
583 334 m 25x4010
 708 334 l 25
 708 267 l 25x4010
 583 267 l 25x8020
 583 334 l 25x4010
208 267 m 25x41
 333 267 l 25
 333 200 l 25
 208 200 l 25x8080
 208 267 l 25x41
333 267 m 25
 458 267 l 25
 458 200 l 25x8040
 333 200 l 25
 333 267 l 25
458 267 m 25
 583 267 l 25
 583 200 l 25x8020
 458 200 l 25
 458 267 l 25
583 267 m 25
 708 267 l 25x4010
 708 200 l 25x8010
 583 200 l 25
 583 267 l 25
EndSplineSet
EndChar

StartChar: T
Encoding: 84 84 52
Width: 916
VWidth: 0
Flags: HW
HStem: 200 21G<333 458> 514 20G<333 458> 534 21G<333 458> 600 67<83 333 458 833>
VStem: 83 125<600 667> 208 125<600 667> 333 125<200 667> 458 125<600 667> 583 125<600 667> 708 125<600 667>
LayerCount: 2
Fore
SplineSet
83 667 m 25x98
 208 667 l 25
 208 600 l 25
 83 600 l 25
 83 667 l 25x98
208 667 m 25
 333 667 l 25
 333 600 l 25x94
 208 600 l 25
 208 667 l 25
333 667 m 25
 458 667 l 25
 458 600 l 25x92
 333 600 l 25
 333 667 l 25
458 667 m 25
 583 667 l 25
 583 600 l 25x91
 458 600 l 25
 458 667 l 25
583 667 m 25
 708 667 l 25
 708 600 l 25x9080
 583 600 l 25
 583 667 l 25
708 667 m 25
 833 667 l 25
 833 600 l 25x9040
 708 600 l 25
 708 667 l 25
333 600 m 25xd4
 458 600 l 25
 458 534 l 25
 333 534 l 25xd2
 333 600 l 25xd4
333 534 m 25
 458 534 l 25
 458 467 l 25
 333 467 l 25
 333 534 l 25
333 467 m 25
 458 467 l 25
 458 400 l 25
 333 400 l 25
 333 467 l 25
333 400 m 25
 458 400 l 25
 458 334 l 25
 333 334 l 25
 333 400 l 25
333 334 m 25
 458 334 l 25
 458 267 l 25
 333 267 l 25
 333 334 l 25
333 267 m 25
 458 267 l 25
 458 200 l 25
 333 200 l 25
 333 267 l 25
EndSplineSet
EndChar

StartChar: U
Encoding: 85 85 53
Width: 666
VWidth: 0
Flags: HW
HStem: 200 67<208 458> 514 20G<83 208 458 583> 534 21G<83 208 458 583> 647 20G<83 208 458 583>
VStem: 83 125<200 667> 208 125<200 267> 333 125<200 267> 458 125<200 667>
LayerCount: 2
Fore
SplineSet
83 667 m 25x98
 208 667 l 25
 208 600 l 25
 83 600 l 25
 83 667 l 25x98
458 667 m 25x91
 583 667 l 25
 583 600 l 25
 458 600 l 25
 458 667 l 25x91
83 600 m 25xd8
 208 600 l 25
 208 534 l 25
 83 534 l 25
 83 600 l 25xd8
458 600 m 25xd1
 583 600 l 25
 583 534 l 25
 458 534 l 25
 458 600 l 25xd1
83 534 m 25xd8
 208 534 l 25
 208 467 l 25
 83 467 l 25
 83 534 l 25xd8
458 534 m 25xd1
 583 534 l 25
 583 467 l 25
 458 467 l 25
 458 534 l 25xd1
83 467 m 25x98
 208 467 l 25
 208 400 l 25
 83 400 l 25
 83 467 l 25x98
458 467 m 25x91
 583 467 l 25
 583 400 l 25
 458 400 l 25
 458 467 l 25x91
83 400 m 25x98
 208 400 l 25
 208 334 l 25
 83 334 l 25
 83 400 l 25x98
458 400 m 25x91
 583 400 l 25
 583 334 l 25
 458 334 l 25
 458 400 l 25x91
83 334 m 25x98
 208 334 l 25
 208 267 l 25
 83 267 l 25
 83 334 l 25x98
458 334 m 25x91
 583 334 l 25
 583 267 l 25x91
 458 267 l 25x92
 458 334 l 25x91
83 267 m 25x98
 208 267 l 25
 208 200 l 25
 83 200 l 25
 83 267 l 25x98
208 267 m 25
 333 267 l 25
 333 200 l 25x94
 208 200 l 25
 208 267 l 25
333 267 m 25
 458 267 l 25
 458 200 l 25x92
 333 200 l 25
 333 267 l 25
458 267 m 25
 583 267 l 25
 583 200 l 25x91
 458 200 l 25
 458 267 l 25
EndSplineSet
EndChar

StartChar: V
Encoding: 86 86 54
Width: 916
VWidth: 0
Flags: HW
HStem: 200 200<333 583> 400 200<208 333 583 708> 514 20G<208 333 583 708> 534 21G<208 333 583 708> 600 67<83 208 708 833>
VStem: 83 125<600 667> 208 125<400 600> 333 125<200 400> 458 125<200 400> 583 125<400 600> 708 125<600 667>
LayerCount: 2
Fore
SplineSet
83 667 m 25x0c
 208 667 l 25x0c
 208 600 l 25x44
 83 600 l 25
 83 667 l 25x0c
708 667 m 25x0820
 833 667 l 25
 833 600 l 25x0820
 708 600 l 25x4040
 708 667 l 25x0820
208 600 m 25x44
 333 600 l 25x42
 333 534 l 25
 208 534 l 25x22
 208 600 l 25x44
583 600 m 25x4040
 708 600 l 25x4040
 708 534 l 25
 583 534 l 25x2040
 583 600 l 25x4040
208 534 m 25x22
 333 534 l 25
 333 467 l 25
 208 467 l 25
 208 534 l 25x22
583 534 m 25x2040
 708 534 l 25
 708 467 l 25
 583 467 l 25
 583 534 l 25x2040
208 467 m 25x42
 333 467 l 25
 333 400 l 25x82
 208 400 l 25
 208 467 l 25x42
583 467 m 25x8040
 708 467 l 25
 708 400 l 25x4040
 583 400 l 25x8080
 583 467 l 25x8040
333 400 m 25x82
 458 400 l 25
 458 334 l 25
 333 334 l 25x81
 333 400 l 25x82
458 400 m 25
 583 400 l 25
 583 334 l 25x8080
 458 334 l 25
 458 400 l 25
333 334 m 25x01
 458 334 l 25
 458 267 l 25
 333 267 l 25
 333 334 l 25x01
458 334 m 25
 583 334 l 25
 583 267 l 25x0080
 458 267 l 25
 458 334 l 25
333 267 m 25x81
 458 267 l 25
 458 200 l 25
 333 200 l 25
 333 267 l 25x81
458 267 m 25
 583 267 l 25
 583 200 l 25x8080
 458 200 l 25
 458 267 l 25
EndSplineSet
EndChar

StartChar: W
Encoding: 87 87 55
Width: 916
VWidth: 0
Flags: HW
HStem: 200 200<208 333 583 708> 334 200<333 583> 400 267<83 208 708 833> 534 21G<83 208 708 833>
VStem: 83 125<400 667> 208 125<200 400> 333 125<334 534> 458 125<334 534> 583 125<200 400> 708 125<400 667>
LayerCount: 2
Fore
SplineSet
83 667 m 25x28
 208 667 l 25
 208 600 l 25
 83 600 l 25
 83 667 l 25x28
708 667 m 25x2040
 833 667 l 25
 833 600 l 25
 708 600 l 25
 708 667 l 25x2040
83 600 m 25x18
 208 600 l 25
 208 534 l 25
 83 534 l 25
 83 600 l 25x18
708 600 m 25x1040
 833 600 l 25
 833 534 l 25
 708 534 l 25
 708 600 l 25x1040
83 534 m 25x18
 208 534 l 25
 208 467 l 25
 83 467 l 25
 83 534 l 25x18
333 534 m 25x42
 458 534 l 25
 458 467 l 25
 333 467 l 25
 333 534 l 25x42
458 534 m 25
 583 534 l 25
 583 467 l 25x41
 458 467 l 25
 458 534 l 25
708 534 m 25x1040
 833 534 l 25
 833 467 l 25
 708 467 l 25
 708 534 l 25x1040
83 467 m 25x28
 208 467 l 25
 208 400 l 25x88
 83 400 l 25
 83 467 l 25x28
333 467 m 25x82
 458 467 l 25
 458 400 l 25x22
 333 400 l 25x84
 333 467 l 25x82
458 467 m 25
 583 467 l 25
 583 400 l 25x81
 458 400 l 25
 458 467 l 25
708 467 m 25x8040
 833 467 l 25
 833 400 l 25x2040
 708 400 l 25x8080
 708 467 l 25x8040
208 400 m 25x88
 333 400 l 25x84
 333 334 l 25
 208 334 l 25x44
 208 400 l 25x88
333 400 m 25
 458 400 l 25x22
 458 334 l 25x42
 333 334 l 25x44
 333 400 l 25
458 400 m 25
 583 400 l 25x81
 583 334 l 25x41
 458 334 l 25x42
 458 400 l 25
583 400 m 25
 708 400 l 25x8080
 708 334 l 25x4080
 583 334 l 25x41
 583 400 l 25
208 334 m 25x44
 333 334 l 25
 333 267 l 25
 208 267 l 25
 208 334 l 25x44
583 334 m 25x41
 708 334 l 25
 708 267 l 25
 583 267 l 25x4080
 583 334 l 25x41
208 267 m 25x84
 333 267 l 25
 333 200 l 25
 208 200 l 25
 208 267 l 25x84
583 267 m 25x8080
 708 267 l 25
 708 200 l 25
 583 200 l 25
 583 267 l 25x8080
EndSplineSet
EndChar

StartChar: X
Encoding: 88 88 56
Width: 916
VWidth: 0
Flags: HW
HStem: 200 67<83 208 708 833> 267 67<208 333 583 708> 334 200<333 583> 534 133<208 333 583 708>
VStem: 83 125<200 267> 208 125<267 334 534 667> 333 125<334 534> 458 125<334 534> 583 125<267 334 534 667> 708 125<200 267>
LayerCount: 2
Fore
SplineSet
208 667 m 25x14
 333 667 l 25
 333 600 l 25
 208 600 l 25
 208 667 l 25x14
583 667 m 25x1080
 708 667 l 25
 708 600 l 25
 583 600 l 25
 583 667 l 25x1080
208 600 m 25x14
 333 600 l 25
 333 534 l 25x24
 208 534 l 25
 208 600 l 25x14
583 600 m 25x2080
 708 600 l 25
 708 534 l 25x1080
 583 534 l 25x21
 583 600 l 25x2080
333 534 m 25x24
 458 534 l 25
 458 467 l 25
 333 467 l 25x22
 333 534 l 25x24
458 534 m 25
 583 534 l 25
 583 467 l 25x21
 458 467 l 25
 458 534 l 25
333 467 m 25x02
 458 467 l 25
 458 400 l 25
 333 400 l 25
 333 467 l 25x02
458 467 m 25
 583 467 l 25
 583 400 l 25x01
 458 400 l 25
 458 467 l 25
333 400 m 25x42
 458 400 l 25
 458 334 l 25x22
 333 334 l 25x44
 333 400 l 25x42
458 400 m 25
 583 400 l 25
 583 334 l 25x41
 458 334 l 25
 458 400 l 25
208 334 m 25x44
 333 334 l 25
 333 267 l 25x44
 208 267 l 25x88
 208 334 l 25x44
583 334 m 25x41
 708 334 l 25x4080
 708 267 l 25x8080
 583 267 l 25x4080
 583 334 l 25x41
83 267 m 25x88
 208 267 l 25
 208 200 l 25
 83 200 l 25
 83 267 l 25x88
708 267 m 25x8080
 833 267 l 25
 833 200 l 25
 708 200 l 25x8040
 708 267 l 25x8080
EndSplineSet
EndChar

StartChar: Y
Encoding: 89 89 57
Width: 916
VWidth: 0
Flags: HW
HStem: 200 21G<333 458> 400 134<458 583> 534 66<208 333 583 708> 600 67<83 208 708 833>
VStem: 83 125<600 667> 208 125<534 600> 333 125<200 534> 458 125<400 534> 583 125<534 600> 708 125<600 667>
LayerCount: 2
Fore
SplineSet
83 667 m 25x98
 208 667 l 25x98
 208 600 l 25xa8
 83 600 l 25
 83 667 l 25x98
708 667 m 25x9040
 833 667 l 25
 833 600 l 25x9040
 708 600 l 25xa080
 708 667 l 25x9040
208 600 m 25xa8
 333 600 l 25
 333 534 l 25
 208 534 l 25xa4
 208 600 l 25xa8
583 600 m 25xa080
 708 600 l 25
 708 534 l 25xa080
 583 534 l 25xc1
 583 600 l 25xa080
333 534 m 25xa4
 458 534 l 25
 458 467 l 25
 333 467 l 25xc2
 333 534 l 25xa4
458 534 m 25
 583 534 l 25
 583 467 l 25xc1
 458 467 l 25
 458 534 l 25
333 467 m 25xc2
 458 467 l 25
 458 400 l 25
 333 400 l 25
 333 467 l 25xc2
458 467 m 25
 583 467 l 25
 583 400 l 25xc1
 458 400 l 25
 458 467 l 25
333 400 m 25xc2
 458 400 l 25
 458 334 l 25
 333 334 l 25
 333 400 l 25xc2
333 334 m 25
 458 334 l 25
 458 267 l 25
 333 267 l 25
 333 334 l 25
333 267 m 25
 458 267 l 25
 458 200 l 25
 333 200 l 25
 333 267 l 25
EndSplineSet
EndChar

StartChar: Z
Encoding: 90 90 58
Width: 916
VWidth: 0
Flags: HW
HStem: 200 134<208 333> 200 67<83 208 333 833> 334 133<333 458> 467 67<458 583> 534 133<583 708> 600 67<208 583>
VStem: 83 125<200 267> 208 125<200 334 600 667> 333 125<200 267 334 467 600 667> 458 125<200 267 467 534 600 667> 583 125<200 267 534 667> 708 125<200 267>
LayerCount: 2
Fore
SplineSet
208 667 m 25x05
 333 667 l 25
 333 600 l 25
 208 600 l 25
 208 667 l 25x05
333 667 m 25
 458 667 l 25
 458 600 l 25x0480
 333 600 l 25
 333 667 l 25
458 667 m 25
 583 667 l 25x0840
 583 600 l 25x0440
 458 600 l 25
 458 667 l 25
583 667 m 25
 708 667 l 25x0820
 708 600 l 25x0420
 583 600 l 25x0440
 583 667 l 25
583 600 m 25x1440
 708 600 l 25x1420
 708 534 l 25x0820
 583 534 l 25
 583 600 l 25x1440
458 534 m 25x1040
 583 534 l 25
 583 467 l 25x1040
 458 467 l 25x2080
 458 534 l 25x1040
333 467 m 25x2080
 458 467 l 25
 458 400 l 25
 333 400 l 25
 333 467 l 25x2080
333 400 m 25
 458 400 l 25
 458 334 l 25x2080
 333 334 l 25x81
 333 400 l 25
208 334 m 25x81
 333 334 l 25x81
 333 267 l 25x41
 208 267 l 25x42
 208 334 l 25x81
83 267 m 25x42
 208 267 l 25x42
 208 200 l 25x82
 83 200 l 25
 83 267 l 25x42
208 267 m 25
 333 267 l 25x41
 333 200 l 25x81
 208 200 l 25x82
 208 267 l 25
333 267 m 25
 458 267 l 25
 458 200 l 25x4080
 333 200 l 25x81
 333 267 l 25
458 267 m 25
 583 267 l 25
 583 200 l 25x4040
 458 200 l 25
 458 267 l 25
583 267 m 25
 708 267 l 25
 708 200 l 25x4020
 583 200 l 25
 583 267 l 25
708 267 m 25
 833 267 l 25
 833 200 l 25x4010
 708 200 l 25
 708 267 l 25
EndSplineSet
EndChar

StartChar: bracketleft
Encoding: 91 91 59
Width: 541
VWidth: 0
Flags: HW
HStem: 67 67<208 458> 180 20G<83 208> 200 21G<83 208> 514 20G<83 208> 534 21G<83 208> 600 67<208 458>
VStem: 83 125<67 667> 208 125<67 134 600 667> 333 125<67 134 600 667>
LayerCount: 2
Fore
SplineSet
83 667 m 25x86
 208 667 l 25
 208 600 l 25
 83 600 l 25
 83 667 l 25x86
208 667 m 25
 333 667 l 25
 333 600 l 25x85
 208 600 l 25
 208 667 l 25
333 667 m 25
 458 667 l 25
 458 600 l 25x8480
 333 600 l 25
 333 667 l 25
83 600 m 25x96
 208 600 l 25
 208 534 l 25
 83 534 l 25
 83 600 l 25x96
83 534 m 25
 208 534 l 25
 208 467 l 25
 83 467 l 25
 83 534 l 25
83 467 m 25
 208 467 l 25
 208 400 l 25
 83 400 l 25
 83 467 l 25
83 400 m 25
 208 400 l 25
 208 334 l 25
 83 334 l 25
 83 400 l 25
83 334 m 25
 208 334 l 25
 208 267 l 25
 83 267 l 25
 83 334 l 25
83 267 m 25
 208 267 l 25
 208 200 l 25
 83 200 l 25xc6
 83 267 l 25
83 200 m 25
 208 200 l 25
 208 134 l 25
 83 134 l 25
 83 200 l 25
83 134 m 25
 208 134 l 25
 208 67 l 25
 83 67 l 25
 83 134 l 25
208 134 m 25
 333 134 l 25
 333 67 l 25x85
 208 67 l 25
 208 134 l 25
333 134 m 25
 458 134 l 25
 458 67 l 25x8480
 333 67 l 25
 333 134 l 25
EndSplineSet
EndChar

StartChar: backslash
Encoding: 92 92 60
Width: 666
VWidth: 0
Flags: HW
HStem: 200 134<458 583> 334 66<333 458> 400 134<208 333> 534 133<83 208>
VStem: 83 125<534 667> 208 125<400 534> 333 125<334 400> 458 125<200 334>
LayerCount: 2
Fore
SplineSet
83 667 m 25x18
 208 667 l 25
 208 600 l 25
 83 600 l 25
 83 667 l 25x18
83 600 m 25
 208 600 l 25
 208 534 l 25x28
 83 534 l 25
 83 600 l 25
208 534 m 25
 333 534 l 25
 333 467 l 25
 208 467 l 25x24
 208 534 l 25
208 467 m 25
 333 467 l 25
 333 400 l 25x44
 208 400 l 25
 208 467 l 25
333 400 m 25
 458 400 l 25x42
 458 334 l 25x82
 333 334 l 25x42
 333 400 l 25
458 334 m 25x82
 583 334 l 25
 583 267 l 25
 458 267 l 25x81
 458 334 l 25x82
458 267 m 25
 583 267 l 25
 583 200 l 25
 458 200 l 25
 458 267 l 25
EndSplineSet
EndChar

StartChar: bracketright
Encoding: 93 93 61
Width: 541
VWidth: 0
Flags: HW
HStem: 67 67<83 333> 180 20G<333 458> 200 21G<333 458> 514 20G<333 458> 534 21G<333 458> 600 67<83 333>
VStem: 83 125<67 134 600 667> 208 125<67 134 600 667> 333 125<67 667>
LayerCount: 2
Fore
SplineSet
83 667 m 25x86
 208 667 l 25
 208 600 l 25
 83 600 l 25
 83 667 l 25x86
208 667 m 25
 333 667 l 25
 333 600 l 25x85
 208 600 l 25
 208 667 l 25
333 667 m 25
 458 667 l 25
 458 600 l 25x8480
 333 600 l 25
 333 667 l 25
333 600 m 25x95
 458 600 l 25
 458 534 l 25
 333 534 l 25x9480
 333 600 l 25x95
333 534 m 25
 458 534 l 25
 458 467 l 25
 333 467 l 25
 333 534 l 25
333 467 m 25
 458 467 l 25
 458 400 l 25
 333 400 l 25
 333 467 l 25
333 400 m 25
 458 400 l 25
 458 334 l 25
 333 334 l 25
 333 400 l 25
333 334 m 25
 458 334 l 25
 458 267 l 25
 333 267 l 25
 333 334 l 25
333 267 m 25
 458 267 l 25
 458 200 l 25
 333 200 l 25xc480
 333 267 l 25
333 200 m 25
 458 200 l 25
 458 134 l 25xc480
 333 134 l 25xc5
 333 200 l 25
83 134 m 25x86
 208 134 l 25
 208 67 l 25
 83 67 l 25
 83 134 l 25x86
208 134 m 25
 333 134 l 25
 333 67 l 25x85
 208 67 l 25
 208 134 l 25
333 134 m 25
 458 134 l 25
 458 67 l 25x8480
 333 67 l 25
 333 134 l 25
EndSplineSet
EndChar

StartChar: asciicircum
Encoding: 94 94 62
Width: 666
VWidth: 0
Flags: HW
HStem: 400 134<83 208 458 583> 534 133<208 458>
VStem: 83 125<400 534> 208 125<534 667> 333 125<534 667> 458 125<400 534>
LayerCount: 2
Fore
SplineSet
208 667 m 25x50
 333 667 l 25
 333 600 l 25
 208 600 l 25
 208 667 l 25x50
333 667 m 25
 458 667 l 25
 458 600 l 25x48
 333 600 l 25
 333 667 l 25
208 600 m 25x90
 333 600 l 25
 333 534 l 25x50
 208 534 l 25xa0
 208 600 l 25x90
333 600 m 25
 458 600 l 25
 458 534 l 25x88
 333 534 l 25
 333 600 l 25
83 534 m 25xa0
 208 534 l 25
 208 467 l 25
 83 467 l 25
 83 534 l 25xa0
458 534 m 25x88
 583 534 l 25
 583 467 l 25
 458 467 l 25x84
 458 534 l 25x88
83 467 m 25xa0
 208 467 l 25
 208 400 l 25
 83 400 l 25
 83 467 l 25xa0
458 467 m 25x84
 583 467 l 25
 583 400 l 25
 458 400 l 25
 458 467 l 25x84
EndSplineSet
EndChar

StartChar: underscore
Encoding: 95 95 63
Width: 916
VWidth: 0
Flags: HW
HStem: 67 67<83 833>
VStem: 83 125<67 134> 208 125<67 134> 333 125<67 134> 458 125<67 134> 583 125<67 134> 708 125<67 134>
LayerCount: 2
Fore
SplineSet
83 134 m 25xc0
 208 134 l 25
 208 67 l 25
 83 67 l 25
 83 134 l 25xc0
208 134 m 25
 333 134 l 25
 333 67 l 25xa0
 208 67 l 25
 208 134 l 25
333 134 m 25
 458 134 l 25
 458 67 l 25x90
 333 67 l 25
 333 134 l 25
458 134 m 25
 583 134 l 25
 583 67 l 25x88
 458 67 l 25
 458 134 l 25
583 134 m 25
 708 134 l 25
 708 67 l 25x84
 583 67 l 25
 583 134 l 25
708 134 m 25
 833 134 l 25
 833 67 l 25x82
 708 67 l 25
 708 134 l 25
EndSplineSet
EndChar

StartChar: grave
Encoding: 96 96 64
Width: 416
VWidth: 0
Flags: HW
HStem: 600 67<208 333> 667 67<83 208>
VStem: 83 125<667 734> 208 125<600 667>
LayerCount: 2
Fore
SplineSet
83 734 m 25x60
 208 734 l 25x60
 208 667 l 25xa0
 83 667 l 25
 83 734 l 25x60
208 667 m 25xa0
 333 667 l 25
 333 600 l 25
 208 600 l 25x90
 208 667 l 25xa0
EndSplineSet
EndChar

StartChar: a
Encoding: 97 97 65
Width: 791
VWidth: 0
Flags: HW
HStem: 200 67<208 458 583 708> 334 66<208 458> 467 67<83 458>
VStem: 83 125<200 400 467 534> 208 125<200 267 334 400 467 534> 333 125<200 267 334 400 467 534> 458 125<200 534> 583 125<200 267>
CounterMasks: 1 e0
LayerCount: 2
Fore
SplineSet
83 534 m 25xf0
 208 534 l 25
 208 467 l 25
 83 467 l 25
 83 534 l 25xf0
208 534 m 25
 333 534 l 25
 333 467 l 25xe8
 208 467 l 25
 208 534 l 25
333 534 m 25
 458 534 l 25
 458 467 l 25xe4
 333 467 l 25
 333 534 l 25
458 534 m 25
 583 534 l 25
 583 467 l 25xe2
 458 467 l 25
 458 534 l 25
458 467 m 25xe4
 583 467 l 25
 583 400 l 25xe2
 458 400 l 25
 458 467 l 25xe4
83 400 m 25xf0
 208 400 l 25
 208 334 l 25
 83 334 l 25
 83 400 l 25xf0
208 400 m 25
 333 400 l 25
 333 334 l 25xe8
 208 334 l 25
 208 400 l 25
333 400 m 25
 458 400 l 25
 458 334 l 25xe4
 333 334 l 25
 333 400 l 25
458 400 m 25
 583 400 l 25
 583 334 l 25xe2
 458 334 l 25
 458 400 l 25
83 334 m 25xf0
 208 334 l 25
 208 267 l 25
 83 267 l 25
 83 334 l 25xf0
458 334 m 25xe4
 583 334 l 25
 583 267 l 25xe2
 458 267 l 25
 458 334 l 25xe4
83 267 m 25xf0
 208 267 l 25
 208 200 l 25
 83 200 l 25
 83 267 l 25xf0
208 267 m 25
 333 267 l 25
 333 200 l 25xe8
 208 200 l 25
 208 267 l 25
333 267 m 25
 458 267 l 25
 458 200 l 25xe4
 333 200 l 25
 333 267 l 25
458 267 m 25
 583 267 l 25
 583 200 l 25xe2
 458 200 l 25
 458 267 l 25
583 267 m 25
 708 267 l 25
 708 200 l 25xe1
 583 200 l 25
 583 267 l 25
EndSplineSet
EndChar

StartChar: b
Encoding: 98 98 66
Width: 666
VWidth: 0
Flags: HW
HStem: 200 67<208 458> 467 67<208 458> 534 21G<83 208> 647 20G<83 208>
VStem: 83 125<200 667> 208 125<200 267 467 534> 333 125<200 267 467 534> 458 125<200 534>
LayerCount: 2
Fore
SplineSet
83 667 m 25x98
 208 667 l 25
 208 600 l 25
 83 600 l 25
 83 667 l 25x98
83 600 m 25
 208 600 l 25
 208 534 l 25xd8
 83 534 l 25xb8
 83 600 l 25
83 534 m 25xb8
 208 534 l 25
 208 467 l 25
 83 467 l 25xd8
 83 534 l 25xb8
208 534 m 25
 333 534 l 25
 333 467 l 25xd4
 208 467 l 25
 208 534 l 25
333 534 m 25
 458 534 l 25
 458 467 l 25xd2
 333 467 l 25
 333 534 l 25
458 534 m 25
 583 534 l 25xb1
 583 467 l 25xd1
 458 467 l 25
 458 534 l 25
83 467 m 25xd8
 208 467 l 25
 208 400 l 25
 83 400 l 25
 83 467 l 25xd8
458 467 m 25xd2
 583 467 l 25
 583 400 l 25
 458 400 l 25xd1
 458 467 l 25xd2
83 400 m 25x98
 208 400 l 25
 208 334 l 25
 83 334 l 25
 83 400 l 25x98
458 400 m 25x91
 583 400 l 25
 583 334 l 25
 458 334 l 25
 458 400 l 25x91
83 334 m 25x98
 208 334 l 25
 208 267 l 25
 83 267 l 25
 83 334 l 25x98
458 334 m 25x91
 583 334 l 25
 583 267 l 25x91
 458 267 l 25x92
 458 334 l 25x91
83 267 m 25x98
 208 267 l 25
 208 200 l 25
 83 200 l 25
 83 267 l 25x98
208 267 m 25
 333 267 l 25
 333 200 l 25x94
 208 200 l 25
 208 267 l 25
333 267 m 25
 458 267 l 25
 458 200 l 25x92
 333 200 l 25
 333 267 l 25
458 267 m 25
 583 267 l 25
 583 200 l 25x91
 458 200 l 25
 458 267 l 25
EndSplineSet
EndChar

StartChar: c
Encoding: 99 99 67
Width: 666
VWidth: 0
Flags: HW
HStem: 200 67<208 583> 467 67<208 583>
VStem: 83 125<200 534> 208 125<200 267 467 534> 333 125<200 267 467 534> 458 125<200 267 467 534>
LayerCount: 2
Fore
SplineSet
83 534 m 25xe0
 208 534 l 25
 208 467 l 25
 83 467 l 25
 83 534 l 25xe0
208 534 m 25
 333 534 l 25
 333 467 l 25xd0
 208 467 l 25
 208 534 l 25
333 534 m 25
 458 534 l 25
 458 467 l 25xc8
 333 467 l 25
 333 534 l 25
458 534 m 25
 583 534 l 25
 583 467 l 25xc4
 458 467 l 25
 458 534 l 25
83 467 m 25xe0
 208 467 l 25
 208 400 l 25
 83 400 l 25
 83 467 l 25xe0
83 400 m 25
 208 400 l 25
 208 334 l 25
 83 334 l 25
 83 400 l 25
83 334 m 25
 208 334 l 25
 208 267 l 25
 83 267 l 25
 83 334 l 25
83 267 m 25
 208 267 l 25
 208 200 l 25
 83 200 l 25
 83 267 l 25
208 267 m 25
 333 267 l 25
 333 200 l 25xd0
 208 200 l 25
 208 267 l 25
333 267 m 25
 458 267 l 25
 458 200 l 25xc8
 333 200 l 25
 333 267 l 25
458 267 m 25
 583 267 l 25
 583 200 l 25xc4
 458 200 l 25
 458 267 l 25
EndSplineSet
EndChar

StartChar: d
Encoding: 100 100 68
Width: 666
VWidth: 0
Flags: HW
HStem: 200 67<208 458> 467 67<208 458> 534 21G<458 583> 647 20G<458 583>
VStem: 83 125<200 534> 208 125<200 267 467 534> 333 125<200 267 467 534> 458 125<200 667>
LayerCount: 2
Fore
SplineSet
458 667 m 25x91
 583 667 l 25
 583 600 l 25
 458 600 l 25
 458 667 l 25x91
458 600 m 25
 583 600 l 25
 583 534 l 25xb1
 458 534 l 25xd2
 458 600 l 25
83 534 m 25xb8
 208 534 l 25
 208 467 l 25
 83 467 l 25xd8
 83 534 l 25xb8
208 534 m 25
 333 534 l 25
 333 467 l 25xd4
 208 467 l 25
 208 534 l 25
333 534 m 25
 458 534 l 25
 458 467 l 25xd2
 333 467 l 25
 333 534 l 25
458 534 m 25
 583 534 l 25xb1
 583 467 l 25xd1
 458 467 l 25
 458 534 l 25
83 467 m 25xd8
 208 467 l 25
 208 400 l 25
 83 400 l 25
 83 467 l 25xd8
458 467 m 25xd2
 583 467 l 25
 583 400 l 25
 458 400 l 25xd1
 458 467 l 25xd2
83 400 m 25x98
 208 400 l 25
 208 334 l 25
 83 334 l 25
 83 400 l 25x98
458 400 m 25x91
 583 400 l 25
 583 334 l 25
 458 334 l 25
 458 400 l 25x91
83 334 m 25x98
 208 334 l 25
 208 267 l 25
 83 267 l 25
 83 334 l 25x98
458 334 m 25x91
 583 334 l 25
 583 267 l 25x91
 458 267 l 25x92
 458 334 l 25x91
83 267 m 25x98
 208 267 l 25
 208 200 l 25
 83 200 l 25
 83 267 l 25x98
208 267 m 25
 333 267 l 25
 333 200 l 25x94
 208 200 l 25
 208 267 l 25
333 267 m 25
 458 267 l 25
 458 200 l 25x92
 333 200 l 25
 333 267 l 25
458 267 m 25
 583 267 l 25
 583 200 l 25x91
 458 200 l 25
 458 267 l 25
EndSplineSet
EndChar

StartChar: e
Encoding: 101 101 69
Width: 666
VWidth: 0
Flags: HW
HStem: 200 67<208 583> 334 66<208 458> 467 67<208 458>
VStem: 83 125<200 534> 208 125<200 267 334 400 467 534> 333 125<200 267 334 400 467 534> 458 125<200 267 334 534>
CounterMasks: 1 e0
LayerCount: 2
Fore
SplineSet
83 534 m 25xf0
 208 534 l 25
 208 467 l 25
 83 467 l 25
 83 534 l 25xf0
208 534 m 25
 333 534 l 25
 333 467 l 25xe8
 208 467 l 25
 208 534 l 25
333 534 m 25
 458 534 l 25
 458 467 l 25xe4
 333 467 l 25
 333 534 l 25
458 534 m 25
 583 534 l 25
 583 467 l 25xe2
 458 467 l 25
 458 534 l 25
83 467 m 25xf0
 208 467 l 25
 208 400 l 25
 83 400 l 25
 83 467 l 25xf0
458 467 m 25xe4
 583 467 l 25
 583 400 l 25xe2
 458 400 l 25
 458 467 l 25xe4
83 400 m 25xf0
 208 400 l 25
 208 334 l 25
 83 334 l 25
 83 400 l 25xf0
208 400 m 25
 333 400 l 25
 333 334 l 25xe8
 208 334 l 25
 208 400 l 25
333 400 m 25
 458 400 l 25
 458 334 l 25xe4
 333 334 l 25
 333 400 l 25
458 400 m 25
 583 400 l 25
 583 334 l 25xe2
 458 334 l 25
 458 400 l 25
83 334 m 25xf0
 208 334 l 25
 208 267 l 25
 83 267 l 25
 83 334 l 25xf0
83 267 m 25
 208 267 l 25
 208 200 l 25
 83 200 l 25
 83 267 l 25
208 267 m 25
 333 267 l 25
 333 200 l 25xe8
 208 200 l 25
 208 267 l 25
333 267 m 25
 458 267 l 25
 458 200 l 25xe4
 333 200 l 25
 333 267 l 25
458 267 m 25
 583 267 l 25
 583 200 l 25xe2
 458 200 l 25
 458 267 l 25
EndSplineSet
EndChar

StartChar: f
Encoding: 102 102 70
Width: 666
VWidth: 0
Flags: HW
HStem: 200 21G<208 333> 467 67<83 208 333 583> 534 21G<208 333> 600 67<333 583>
VStem: 83 125<467 534> 208 125<200 667> 333 125<467 534 600 667> 458 125<467 534 600 667>
LayerCount: 2
Fore
SplineSet
208 667 m 25x94
 333 667 l 25
 333 600 l 25
 208 600 l 25
 208 667 l 25x94
333 667 m 25
 458 667 l 25
 458 600 l 25x92
 333 600 l 25
 333 667 l 25
458 667 m 25
 583 667 l 25
 583 600 l 25x91
 458 600 l 25
 458 667 l 25
208 600 m 25xd4
 333 600 l 25
 333 534 l 25xd4
 208 534 l 25xd8
 208 600 l 25xd4
83 534 m 25xd8
 208 534 l 25
 208 467 l 25
 83 467 l 25
 83 534 l 25xd8
208 534 m 25
 333 534 l 25
 333 467 l 25xd4
 208 467 l 25
 208 534 l 25
333 534 m 25
 458 534 l 25
 458 467 l 25xd2
 333 467 l 25
 333 534 l 25
458 534 m 25
 583 534 l 25
 583 467 l 25xd1
 458 467 l 25
 458 534 l 25
208 467 m 25xd8
 333 467 l 25
 333 400 l 25
 208 400 l 25xd4
 208 467 l 25xd8
208 400 m 25
 333 400 l 25
 333 334 l 25
 208 334 l 25
 208 400 l 25
208 334 m 25
 333 334 l 25
 333 267 l 25
 208 267 l 25
 208 334 l 25
208 267 m 25
 333 267 l 25
 333 200 l 25
 208 200 l 25
 208 267 l 25
EndSplineSet
EndChar

StartChar: g
Encoding: 103 103 71
Width: 666
VWidth: 0
Flags: HW
HStem: 67 67<83 458> 180 20G<458 583> 200 67<208 458> 467 67<208 458>
VStem: 83 125<67 134 200 534> 208 125<67 134 200 267 467 534> 333 125<67 134 200 267 467 534> 458 125<67 534>
LayerCount: 2
Fore
SplineSet
83 534 m 25x98
 208 534 l 25
 208 467 l 25
 83 467 l 25
 83 534 l 25x98
208 534 m 25
 333 534 l 25
 333 467 l 25x94
 208 467 l 25
 208 534 l 25
333 534 m 25
 458 534 l 25
 458 467 l 25x92
 333 467 l 25
 333 534 l 25
458 534 m 25
 583 534 l 25
 583 467 l 25x91
 458 467 l 25
 458 534 l 25
83 467 m 25x98
 208 467 l 25
 208 400 l 25
 83 400 l 25
 83 467 l 25x98
458 467 m 25x92
 583 467 l 25
 583 400 l 25
 458 400 l 25x91
 458 467 l 25x92
83 400 m 25x98
 208 400 l 25
 208 334 l 25
 83 334 l 25
 83 400 l 25x98
458 400 m 25x91
 583 400 l 25
 583 334 l 25
 458 334 l 25
 458 400 l 25x91
83 334 m 25xb8
 208 334 l 25
 208 267 l 25
 83 267 l 25
 83 334 l 25xb8
458 334 m 25xb1
 583 334 l 25
 583 267 l 25xb1
 458 267 l 25xb2
 458 334 l 25xb1
83 267 m 25xb8
 208 267 l 25
 208 200 l 25
 83 200 l 25
 83 267 l 25xb8
208 267 m 25
 333 267 l 25
 333 200 l 25xb4
 208 200 l 25
 208 267 l 25
333 267 m 25
 458 267 l 25xb2
 458 200 l 25xd2
 333 200 l 25
 333 267 l 25
458 267 m 25
 583 267 l 25xb1
 583 200 l 25xd1
 458 200 l 25xd2
 458 267 l 25
458 200 m 25xd2
 583 200 l 25
 583 134 l 25xd1
 458 134 l 25
 458 200 l 25xd2
83 134 m 25x98
 208 134 l 25
 208 67 l 25
 83 67 l 25
 83 134 l 25x98
208 134 m 25
 333 134 l 25
 333 67 l 25x94
 208 67 l 25
 208 134 l 25
333 134 m 25
 458 134 l 25
 458 67 l 25x92
 333 67 l 25
 333 134 l 25
458 134 m 25
 583 134 l 25
 583 67 l 25x91
 458 67 l 25
 458 134 l 25
EndSplineSet
EndChar

StartChar: h
Encoding: 104 104 72
Width: 666
VWidth: 0
Flags: HW
HStem: 200 21G<83 208 458 583> 467 67<208 458> 534 21G<83 208> 647 20G<83 208>
VStem: 83 125<200 667> 208 125<467 534> 333 125<467 534> 458 125<200 534>
LayerCount: 2
Fore
SplineSet
83 667 m 25x98
 208 667 l 25
 208 600 l 25
 83 600 l 25
 83 667 l 25x98
83 600 m 25
 208 600 l 25
 208 534 l 25xd8
 83 534 l 25xb8
 83 600 l 25
83 534 m 25xb8
 208 534 l 25
 208 467 l 25
 83 467 l 25xd8
 83 534 l 25xb8
208 534 m 25
 333 534 l 25
 333 467 l 25xd4
 208 467 l 25
 208 534 l 25
333 534 m 25
 458 534 l 25
 458 467 l 25xd2
 333 467 l 25
 333 534 l 25
458 534 m 25
 583 534 l 25xb1
 583 467 l 25xd1
 458 467 l 25
 458 534 l 25
83 467 m 25xd8
 208 467 l 25
 208 400 l 25
 83 400 l 25
 83 467 l 25xd8
458 467 m 25xd2
 583 467 l 25
 583 400 l 25
 458 400 l 25xd1
 458 467 l 25xd2
83 400 m 25x98
 208 400 l 25
 208 334 l 25
 83 334 l 25
 83 400 l 25x98
458 400 m 25x91
 583 400 l 25
 583 334 l 25
 458 334 l 25
 458 400 l 25x91
83 334 m 25x98
 208 334 l 25
 208 267 l 25
 83 267 l 25
 83 334 l 25x98
458 334 m 25x91
 583 334 l 25
 583 267 l 25
 458 267 l 25
 458 334 l 25x91
83 267 m 25x98
 208 267 l 25
 208 200 l 25
 83 200 l 25
 83 267 l 25x98
458 267 m 25x91
 583 267 l 25
 583 200 l 25
 458 200 l 25
 458 267 l 25x91
EndSplineSet
EndChar

StartChar: i
Encoding: 105 105 73
Width: 791
VWidth: 0
Flags: HW
HStem: 200 67<83 333 458 708> 467 67<83 333> 600 67<333 458>
VStem: 83 125<200 267 467 534> 208 125<200 267 467 534> 333 125<200 534 600 667> 458 125<200 267> 583 125<200 267>
LayerCount: 2
Fore
SplineSet
333 667 m 25xe4
 458 667 l 25
 458 600 l 25
 333 600 l 25
 333 667 l 25xe4
83 534 m 25xf0
 208 534 l 25
 208 467 l 25
 83 467 l 25
 83 534 l 25xf0
208 534 m 25
 333 534 l 25
 333 467 l 25xe8
 208 467 l 25
 208 534 l 25
333 534 m 25
 458 534 l 25
 458 467 l 25xe4
 333 467 l 25
 333 534 l 25
333 467 m 25xe8
 458 467 l 25
 458 400 l 25
 333 400 l 25xe4
 333 467 l 25xe8
333 400 m 25
 458 400 l 25
 458 334 l 25
 333 334 l 25
 333 400 l 25
333 334 m 25
 458 334 l 25
 458 267 l 25xe4
 333 267 l 25xe8
 333 334 l 25
83 267 m 25xf0
 208 267 l 25
 208 200 l 25
 83 200 l 25
 83 267 l 25xf0
208 267 m 25
 333 267 l 25
 333 200 l 25xe8
 208 200 l 25
 208 267 l 25
333 267 m 25
 458 267 l 25
 458 200 l 25xe4
 333 200 l 25
 333 267 l 25
458 267 m 25
 583 267 l 25
 583 200 l 25xe2
 458 200 l 25
 458 267 l 25
583 267 m 25
 708 267 l 25
 708 200 l 25xe1
 583 200 l 25
 583 267 l 25
EndSplineSet
EndChar

StartChar: j
Encoding: 106 106 74
Width: 541
VWidth: 0
Flags: HW
HStem: 67 67<83 333> 180 20G<333 458> 200 21G<333 458> 467 67<83 333> 600 67<333 458>
VStem: 83 125<67 134 467 534> 208 125<67 134 467 534> 333 125<67 534 600 667>
LayerCount: 2
Fore
SplineSet
333 667 m 25x99
 458 667 l 25
 458 600 l 25
 333 600 l 25
 333 667 l 25x99
83 534 m 25x9c
 208 534 l 25
 208 467 l 25
 83 467 l 25
 83 534 l 25x9c
208 534 m 25
 333 534 l 25
 333 467 l 25x9a
 208 467 l 25
 208 534 l 25
333 534 m 25
 458 534 l 25
 458 467 l 25x99
 333 467 l 25
 333 534 l 25
333 467 m 25x9a
 458 467 l 25
 458 400 l 25
 333 400 l 25x99
 333 467 l 25x9a
333 400 m 25
 458 400 l 25
 458 334 l 25
 333 334 l 25
 333 400 l 25
333 334 m 25
 458 334 l 25
 458 267 l 25
 333 267 l 25
 333 334 l 25
333 267 m 25
 458 267 l 25
 458 200 l 25
 333 200 l 25xd9
 333 267 l 25
333 200 m 25
 458 200 l 25
 458 134 l 25xd9
 333 134 l 25xda
 333 200 l 25
83 134 m 25x9c
 208 134 l 25
 208 67 l 25
 83 67 l 25
 83 134 l 25x9c
208 134 m 25
 333 134 l 25
 333 67 l 25x9a
 208 67 l 25
 208 134 l 25
333 134 m 25
 458 134 l 25
 458 67 l 25x99
 333 67 l 25
 333 134 l 25
EndSplineSet
EndChar

StartChar: k
Encoding: 107 107 75
Width: 666
VWidth: 0
Flags: HW
HStem: 200 67<458 583> 267 200<333 458> 334 66<208 333> 467 67<458 583> 534 21G<83 208> 647 20G<83 208>
VStem: 83 125<200 667> 208 125<334 400> 333 125<267 467> 458 125<200 267 467 534>
LayerCount: 2
Fore
SplineSet
83 667 m 25x06
 208 667 l 25
 208 600 l 25
 83 600 l 25
 83 667 l 25x06
83 600 m 25
 208 600 l 25
 208 534 l 25
 83 534 l 25x0e
 83 600 l 25
83 534 m 25
 208 534 l 25x0e
 208 467 l 25
 83 467 l 25x16
 83 534 l 25
458 534 m 25x1440
 583 534 l 25
 583 467 l 25x1440
 458 467 l 25x4480
 458 534 l 25x1440
83 467 m 25x36
 208 467 l 25
 208 400 l 25
 83 400 l 25
 83 467 l 25x36
333 467 m 25x4480
 458 467 l 25x4480
 458 400 l 25x2480
 333 400 l 25x25
 333 467 l 25x4480
83 400 m 25x26
 208 400 l 25
 208 334 l 25
 83 334 l 25
 83 400 l 25x26
208 400 m 25
 333 400 l 25
 333 334 l 25x25
 208 334 l 25
 208 400 l 25
333 400 m 25
 458 400 l 25
 458 334 l 25x2480
 333 334 l 25
 333 400 l 25
83 334 m 25x26
 208 334 l 25x26
 208 267 l 25
 83 267 l 25x46
 83 334 l 25x26
333 334 m 25x25
 458 334 l 25
 458 267 l 25xa480
 333 267 l 25x4480
 333 334 l 25x25
83 267 m 25x46
 208 267 l 25x46
 208 200 l 25
 83 200 l 25x86
 83 267 l 25x46
458 267 m 25x8480
 583 267 l 25
 583 200 l 25
 458 200 l 25x8440
 458 267 l 25x8480
EndSplineSet
EndChar

StartChar: l
Encoding: 108 108 76
Width: 541
VWidth: 0
Flags: HW
HStem: 200 67<333 458> 514 20G<208 333> 534 21G<208 333> 600 67<83 208>
VStem: 83 125<600 667> 208 125<200 667> 333 125<200 267>
LayerCount: 2
Fore
SplineSet
83 667 m 25x98
 208 667 l 25
 208 600 l 25
 83 600 l 25
 83 667 l 25x98
208 667 m 25
 333 667 l 25
 333 600 l 25x94
 208 600 l 25
 208 667 l 25
208 600 m 25xd8
 333 600 l 25
 333 534 l 25
 208 534 l 25xd4
 208 600 l 25xd8
208 534 m 25
 333 534 l 25
 333 467 l 25
 208 467 l 25
 208 534 l 25
208 467 m 25
 333 467 l 25
 333 400 l 25
 208 400 l 25
 208 467 l 25
208 400 m 25
 333 400 l 25
 333 334 l 25
 208 334 l 25
 208 400 l 25
208 334 m 25
 333 334 l 25
 333 267 l 25
 208 267 l 25
 208 334 l 25
208 267 m 25
 333 267 l 25
 333 200 l 25
 208 200 l 25
 208 267 l 25
333 267 m 25
 458 267 l 25
 458 200 l 25x92
 333 200 l 25
 333 267 l 25
EndSplineSet
EndChar

StartChar: m
Encoding: 109 109 77
Width: 791
VWidth: 0
Flags: HW
HStem: 200 200<83 208 333 458> 400 134<208 333 458 583> 467 67<83 208 333 458>
VStem: 83 125<200 400 467 534> 208 125<400 534> 333 125<200 400 467 534> 458 125<400 534> 583 125<200 534>
LayerCount: 2
Fore
SplineSet
83 534 m 25x30
 208 534 l 25x50
 208 467 l 25
 83 467 l 25
 83 534 l 25x30
208 534 m 25
 333 534 l 25x48
 333 467 l 25x28
 208 467 l 25x30
 208 534 l 25
333 534 m 25
 458 534 l 25x44
 458 467 l 25x24
 333 467 l 25x28
 333 534 l 25
458 534 m 25
 583 534 l 25x42
 583 467 l 25x22
 458 467 l 25x24
 458 534 l 25
583 534 m 25
 708 534 l 25
 708 467 l 25x21
 583 467 l 25x22
 583 534 l 25
208 467 m 25xb0
 333 467 l 25
 333 400 l 25xa8
 208 400 l 25
 208 467 l 25xb0
458 467 m 25xa4
 583 467 l 25xa2
 583 400 l 25x42
 458 400 l 25
 458 467 l 25xa4
583 467 m 25
 708 467 l 25x21
 708 400 l 25x41
 583 400 l 25x42
 583 467 l 25
83 400 m 25x90
 208 400 l 25
 208 334 l 25
 83 334 l 25
 83 400 l 25x90
333 400 m 25x88
 458 400 l 25
 458 334 l 25
 333 334 l 25x84
 333 400 l 25x88
583 400 m 25x42
 708 400 l 25
 708 334 l 25
 583 334 l 25x41
 583 400 l 25x42
83 334 m 25x10
 208 334 l 25
 208 267 l 25
 83 267 l 25
 83 334 l 25x10
333 334 m 25x04
 458 334 l 25
 458 267 l 25
 333 267 l 25
 333 334 l 25x04
583 334 m 25x01
 708 334 l 25
 708 267 l 25
 583 267 l 25
 583 334 l 25x01
83 267 m 25x90
 208 267 l 25
 208 200 l 25
 83 200 l 25
 83 267 l 25x90
333 267 m 25x84
 458 267 l 25
 458 200 l 25
 333 200 l 25
 333 267 l 25x84
583 267 m 25x81
 708 267 l 25
 708 200 l 25
 583 200 l 25
 583 267 l 25x81
EndSplineSet
EndChar

StartChar: n
Encoding: 110 110 78
Width: 666
VWidth: 0
Flags: HW
HStem: 200 334<83 208 458 583> 467 67<208 458>
VStem: 83 125<200 534> 208 125<467 534> 333 125<467 534> 458 125<200 534>
LayerCount: 2
Fore
SplineSet
83 534 m 25xa0
 208 534 l 25xa0
 208 467 l 25
 83 467 l 25x60
 83 534 l 25xa0
208 534 m 25
 333 534 l 25
 333 467 l 25x50
 208 467 l 25x60
 208 534 l 25
333 534 m 25
 458 534 l 25x88
 458 467 l 25x48
 333 467 l 25
 333 534 l 25
458 534 m 25
 583 534 l 25x84
 583 467 l 25x44
 458 467 l 25x48
 458 534 l 25
83 467 m 25x60
 208 467 l 25
 208 400 l 25
 83 400 l 25
 83 467 l 25x60
458 467 m 25x48
 583 467 l 25
 583 400 l 25
 458 400 l 25x44
 458 467 l 25x48
83 400 m 25x20
 208 400 l 25
 208 334 l 25
 83 334 l 25
 83 400 l 25x20
458 400 m 25x04
 583 400 l 25
 583 334 l 25
 458 334 l 25
 458 400 l 25x04
83 334 m 25x20
 208 334 l 25
 208 267 l 25
 83 267 l 25
 83 334 l 25x20
458 334 m 25x04
 583 334 l 25
 583 267 l 25
 458 267 l 25
 458 334 l 25x04
83 267 m 25xa0
 208 267 l 25
 208 200 l 25
 83 200 l 25
 83 267 l 25xa0
458 267 m 25x84
 583 267 l 25
 583 200 l 25
 458 200 l 25
 458 267 l 25x84
EndSplineSet
EndChar

StartChar: o
Encoding: 111 111 79
Width: 666
VWidth: 0
Flags: HW
HStem: 200 67<208 458> 467 67<208 458>
VStem: 83 125<200 534> 208 125<200 267 467 534> 333 125<200 267 467 534> 458 125<200 534>
LayerCount: 2
Fore
SplineSet
83 534 m 25xe0
 208 534 l 25
 208 467 l 25
 83 467 l 25
 83 534 l 25xe0
208 534 m 25
 333 534 l 25
 333 467 l 25xd0
 208 467 l 25
 208 534 l 25
333 534 m 25
 458 534 l 25
 458 467 l 25xc8
 333 467 l 25
 333 534 l 25
458 534 m 25
 583 534 l 25
 583 467 l 25xc4
 458 467 l 25
 458 534 l 25
83 467 m 25xe0
 208 467 l 25
 208 400 l 25
 83 400 l 25
 83 467 l 25xe0
458 467 m 25xc8
 583 467 l 25
 583 400 l 25
 458 400 l 25xc4
 458 467 l 25xc8
83 400 m 25xe0
 208 400 l 25
 208 334 l 25
 83 334 l 25
 83 400 l 25xe0
458 400 m 25xc4
 583 400 l 25
 583 334 l 25
 458 334 l 25
 458 400 l 25xc4
83 334 m 25xe0
 208 334 l 25
 208 267 l 25
 83 267 l 25
 83 334 l 25xe0
458 334 m 25xc4
 583 334 l 25
 583 267 l 25xc4
 458 267 l 25xc8
 458 334 l 25xc4
83 267 m 25xe0
 208 267 l 25
 208 200 l 25
 83 200 l 25
 83 267 l 25xe0
208 267 m 25
 333 267 l 25
 333 200 l 25xd0
 208 200 l 25
 208 267 l 25
333 267 m 25
 458 267 l 25
 458 200 l 25xc8
 333 200 l 25
 333 267 l 25
458 267 m 25
 583 267 l 25
 583 200 l 25xc4
 458 200 l 25
 458 267 l 25
EndSplineSet
EndChar

StartChar: p
Encoding: 112 112 80
Width: 666
VWidth: 0
Flags: HW
HStem: 67 21G<83 208> 180 20G<83 208> 200 67<208 458> 467 67<208 458>
VStem: 83 125<67 534> 208 125<200 267 467 534> 333 125<200 267 467 534> 458 125<200 534>
LayerCount: 2
Fore
SplineSet
83 534 m 25x98
 208 534 l 25
 208 467 l 25
 83 467 l 25
 83 534 l 25x98
208 534 m 25
 333 534 l 25
 333 467 l 25x94
 208 467 l 25
 208 534 l 25
333 534 m 25
 458 534 l 25
 458 467 l 25x92
 333 467 l 25
 333 534 l 25
458 534 m 25
 583 534 l 25
 583 467 l 25x91
 458 467 l 25
 458 534 l 25
83 467 m 25x98
 208 467 l 25
 208 400 l 25
 83 400 l 25
 83 467 l 25x98
458 467 m 25x92
 583 467 l 25
 583 400 l 25
 458 400 l 25x91
 458 467 l 25x92
83 400 m 25x98
 208 400 l 25
 208 334 l 25
 83 334 l 25
 83 400 l 25x98
458 400 m 25x91
 583 400 l 25
 583 334 l 25
 458 334 l 25
 458 400 l 25x91
83 334 m 25xb8
 208 334 l 25
 208 267 l 25
 83 267 l 25
 83 334 l 25xb8
458 334 m 25xb1
 583 334 l 25
 583 267 l 25xb1
 458 267 l 25xb2
 458 334 l 25xb1
83 267 m 25xb8
 208 267 l 25xb8
 208 200 l 25
 83 200 l 25xd8
 83 267 l 25xb8
208 267 m 25
 333 267 l 25
 333 200 l 25xb4
 208 200 l 25xd8
 208 267 l 25
333 267 m 25
 458 267 l 25
 458 200 l 25xb2
 333 200 l 25
 333 267 l 25
458 267 m 25
 583 267 l 25
 583 200 l 25xb1
 458 200 l 25
 458 267 l 25
83 200 m 25xd8
 208 200 l 25
 208 134 l 25
 83 134 l 25
 83 200 l 25xd8
83 134 m 25
 208 134 l 25
 208 67 l 25
 83 67 l 25
 83 134 l 25
EndSplineSet
EndChar

StartChar: q
Encoding: 113 113 81
Width: 666
VWidth: 0
Flags: HW
HStem: 67 21G<458 583> 180 20G<458 583> 200 67<208 458> 467 67<208 458>
VStem: 83 125<200 534> 208 125<200 267 467 534> 333 125<200 267 467 534> 458 125<67 534>
LayerCount: 2
Fore
SplineSet
83 534 m 25x98
 208 534 l 25
 208 467 l 25
 83 467 l 25
 83 534 l 25x98
208 534 m 25
 333 534 l 25
 333 467 l 25x94
 208 467 l 25
 208 534 l 25
333 534 m 25
 458 534 l 25
 458 467 l 25x92
 333 467 l 25
 333 534 l 25
458 534 m 25
 583 534 l 25
 583 467 l 25x91
 458 467 l 25
 458 534 l 25
83 467 m 25x98
 208 467 l 25
 208 400 l 25
 83 400 l 25
 83 467 l 25x98
458 467 m 25x92
 583 467 l 25
 583 400 l 25
 458 400 l 25x91
 458 467 l 25x92
83 400 m 25x98
 208 400 l 25
 208 334 l 25
 83 334 l 25
 83 400 l 25x98
458 400 m 25x91
 583 400 l 25
 583 334 l 25
 458 334 l 25
 458 400 l 25x91
83 334 m 25xb8
 208 334 l 25
 208 267 l 25
 83 267 l 25
 83 334 l 25xb8
458 334 m 25xb1
 583 334 l 25
 583 267 l 25xb1
 458 267 l 25xb2
 458 334 l 25xb1
83 267 m 25xb8
 208 267 l 25
 208 200 l 25
 83 200 l 25
 83 267 l 25xb8
208 267 m 25
 333 267 l 25
 333 200 l 25xb4
 208 200 l 25
 208 267 l 25
333 267 m 25
 458 267 l 25xb2
 458 200 l 25xd2
 333 200 l 25
 333 267 l 25
458 267 m 25
 583 267 l 25xb1
 583 200 l 25xd1
 458 200 l 25xd2
 458 267 l 25
458 200 m 25xd2
 583 200 l 25
 583 134 l 25
 458 134 l 25xd1
 458 200 l 25xd2
458 134 m 25
 583 134 l 25
 583 67 l 25
 458 67 l 25
 458 134 l 25
EndSplineSet
EndChar

StartChar: r
Encoding: 114 114 82
Width: 666
VWidth: 0
Flags: HW
HStem: 200 21G<83 208> 400 67<208 333> 467 67<333 583>
VStem: 83 125<200 534> 208 125<400 467> 333 125<467 534> 458 125<467 534>
LayerCount: 2
Fore
SplineSet
83 534 m 25xb0
 208 534 l 25xb0
 208 467 l 25xd0
 83 467 l 25
 83 534 l 25xb0
333 534 m 25xa4
 458 534 l 25
 458 467 l 25xa4
 333 467 l 25xc8
 333 534 l 25xa4
458 534 m 25
 583 534 l 25
 583 467 l 25xa2
 458 467 l 25
 458 534 l 25
83 467 m 25xb0
 208 467 l 25
 208 400 l 25
 83 400 l 25xd0
 83 467 l 25xb0
208 467 m 25
 333 467 l 25
 333 400 l 25xc8
 208 400 l 25
 208 467 l 25
83 400 m 25xd0
 208 400 l 25
 208 334 l 25
 83 334 l 25
 83 400 l 25xd0
83 334 m 25
 208 334 l 25
 208 267 l 25
 83 267 l 25
 83 334 l 25
83 267 m 25
 208 267 l 25
 208 200 l 25
 83 200 l 25
 83 267 l 25
EndSplineSet
EndChar

StartChar: s
Encoding: 115 115 83
Width: 666
VWidth: 0
Flags: HW
HStem: 200 67<83 458> 334 66<208 458> 400 134<83 208> 467 67<208 583>
VStem: 83 125<200 267 400 534> 208 125<200 267 334 400 467 534> 333 125<200 267 334 400 467 534> 458 125<200 400 467 534>
LayerCount: 2
Fore
SplineSet
83 534 m 25xa8
 208 534 l 25xa8
 208 467 l 25
 83 467 l 25x98
 83 534 l 25xa8
208 534 m 25
 333 534 l 25
 333 467 l 25x94
 208 467 l 25x98
 208 534 l 25
333 534 m 25
 458 534 l 25
 458 467 l 25x92
 333 467 l 25
 333 534 l 25
458 534 m 25
 583 534 l 25
 583 467 l 25x91
 458 467 l 25
 458 534 l 25
83 467 m 25x98
 208 467 l 25
 208 400 l 25xd8
 83 400 l 25xa8
 83 467 l 25x98
208 400 m 25
 333 400 l 25
 333 334 l 25
 208 334 l 25xc4
 208 400 l 25
333 400 m 25
 458 400 l 25
 458 334 l 25xc2
 333 334 l 25
 333 400 l 25
458 400 m 25
 583 400 l 25xa1
 583 334 l 25xc1
 458 334 l 25
 458 400 l 25
458 334 m 25xc2
 583 334 l 25
 583 267 l 25xc1
 458 267 l 25
 458 334 l 25xc2
83 267 m 25x88
 208 267 l 25
 208 200 l 25
 83 200 l 25
 83 267 l 25x88
208 267 m 25
 333 267 l 25
 333 200 l 25x84
 208 200 l 25
 208 267 l 25
333 267 m 25
 458 267 l 25
 458 200 l 25x82
 333 200 l 25
 333 267 l 25
458 267 m 25
 583 267 l 25
 583 200 l 25x81
 458 200 l 25
 458 267 l 25
EndSplineSet
EndChar

StartChar: t
Encoding: 116 116 84
Width: 666
VWidth: 0
Flags: HW
HStem: 200 67<333 583> 467 67<83 208 333 583> 534 21G<208 333>
VStem: 83 125<467 534> 208 125<200 600> 333 125<200 267 467 534> 458 125<200 267 467 534>
LayerCount: 2
Fore
SplineSet
208 600 m 25xc8
 333 600 l 25
 333 534 l 25xc8
 208 534 l 25xd0
 208 600 l 25xc8
83 534 m 25xd0
 208 534 l 25
 208 467 l 25
 83 467 l 25
 83 534 l 25xd0
208 534 m 25
 333 534 l 25
 333 467 l 25xc8
 208 467 l 25
 208 534 l 25
333 534 m 25
 458 534 l 25
 458 467 l 25xc4
 333 467 l 25
 333 534 l 25
458 534 m 25
 583 534 l 25
 583 467 l 25xc2
 458 467 l 25
 458 534 l 25
208 467 m 25xd0
 333 467 l 25
 333 400 l 25
 208 400 l 25xc8
 208 467 l 25xd0
208 400 m 25
 333 400 l 25
 333 334 l 25
 208 334 l 25
 208 400 l 25
208 334 m 25
 333 334 l 25
 333 267 l 25
 208 267 l 25
 208 334 l 25
208 267 m 25
 333 267 l 25
 333 200 l 25
 208 200 l 25
 208 267 l 25
333 267 m 25
 458 267 l 25
 458 200 l 25x84
 333 200 l 25
 333 267 l 25
458 267 m 25
 583 267 l 25
 583 200 l 25x82
 458 200 l 25
 458 267 l 25
EndSplineSet
EndChar

StartChar: u
Encoding: 117 117 85
Width: 666
VWidth: 0
Flags: HW
HStem: 200 334<83 208 458 583> 200 67<208 458>
VStem: 83 125<200 534> 208 125<200 267> 333 125<200 267> 458 125<200 534>
LayerCount: 2
Fore
SplineSet
83 534 m 25xa0
 208 534 l 25
 208 467 l 25
 83 467 l 25
 83 534 l 25xa0
458 534 m 25x84
 583 534 l 25
 583 467 l 25
 458 467 l 25
 458 534 l 25x84
83 467 m 25x20
 208 467 l 25
 208 400 l 25
 83 400 l 25
 83 467 l 25x20
458 467 m 25x04
 583 467 l 25
 583 400 l 25
 458 400 l 25
 458 467 l 25x04
83 400 m 25x20
 208 400 l 25
 208 334 l 25
 83 334 l 25
 83 400 l 25x20
458 400 m 25x04
 583 400 l 25
 583 334 l 25
 458 334 l 25
 458 400 l 25x04
83 334 m 25x60
 208 334 l 25
 208 267 l 25
 83 267 l 25
 83 334 l 25x60
458 334 m 25x44
 583 334 l 25
 583 267 l 25x44
 458 267 l 25x48
 458 334 l 25x44
83 267 m 25x60
 208 267 l 25x60
 208 200 l 25
 83 200 l 25xa0
 83 267 l 25x60
208 267 m 25
 333 267 l 25
 333 200 l 25x50
 208 200 l 25xa0
 208 267 l 25
333 267 m 25
 458 267 l 25x48
 458 200 l 25x88
 333 200 l 25
 333 267 l 25
458 267 m 25
 583 267 l 25x44
 583 200 l 25x84
 458 200 l 25x88
 458 267 l 25
EndSplineSet
EndChar

StartChar: v
Encoding: 118 118 86
Width: 666
VWidth: 0
Flags: HW
HStem: 200 134<208 458> 334 200<83 208 458 583>
VStem: 83 125<334 534> 208 125<200 334> 333 125<200 334> 458 125<334 534>
LayerCount: 2
Fore
SplineSet
83 534 m 25x60
 208 534 l 25
 208 467 l 25
 83 467 l 25
 83 534 l 25x60
458 534 m 25x44
 583 534 l 25
 583 467 l 25
 458 467 l 25
 458 534 l 25x44
83 467 m 25x20
 208 467 l 25
 208 400 l 25
 83 400 l 25
 83 467 l 25x20
458 467 m 25x04
 583 467 l 25
 583 400 l 25
 458 400 l 25
 458 467 l 25x04
83 400 m 25x60
 208 400 l 25
 208 334 l 25xa0
 83 334 l 25
 83 400 l 25x60
458 400 m 25x84
 583 400 l 25
 583 334 l 25x44
 458 334 l 25x88
 458 400 l 25x84
208 334 m 25xa0
 333 334 l 25
 333 267 l 25
 208 267 l 25x90
 208 334 l 25xa0
333 334 m 25
 458 334 l 25
 458 267 l 25x88
 333 267 l 25
 333 334 l 25
208 267 m 25x90
 333 267 l 25
 333 200 l 25
 208 200 l 25
 208 267 l 25x90
333 267 m 25
 458 267 l 25
 458 200 l 25x88
 333 200 l 25
 333 267 l 25
EndSplineSet
EndChar

StartChar: w
Encoding: 119 119 87
Width: 916
VWidth: 0
Flags: HW
HStem: 200 134<208 333 583 708> 334 200<83 208 708 833> 334 133<333 583>
VStem: 83 125<334 534> 208 125<200 334> 333 125<334 467> 458 125<334 467> 583 125<200 334> 708 125<334 534>
LayerCount: 2
Fore
SplineSet
83 534 m 25x50
 208 534 l 25x50
 208 467 l 25
 83 467 l 25x30
 83 534 l 25x50
708 534 m 25x4080
 833 534 l 25x4080
 833 467 l 25
 708 467 l 25x2080
 708 534 l 25x4080
83 467 m 25x30
 208 467 l 25
 208 400 l 25
 83 400 l 25
 83 467 l 25x30
333 467 m 25x24
 458 467 l 25
 458 400 l 25
 333 400 l 25
 333 467 l 25x24
458 467 m 25
 583 467 l 25
 583 400 l 25x22
 458 400 l 25
 458 467 l 25
708 467 m 25x2080
 833 467 l 25
 833 400 l 25
 708 400 l 25
 708 467 l 25x2080
83 400 m 25x50
 208 400 l 25
 208 334 l 25x90
 83 334 l 25
 83 400 l 25x50
333 400 m 25x84
 458 400 l 25
 458 334 l 25x24
 333 334 l 25x88
 333 400 l 25x84
458 400 m 25
 583 400 l 25
 583 334 l 25x82
 458 334 l 25
 458 400 l 25
708 400 m 25x8080
 833 400 l 25
 833 334 l 25x4080
 708 334 l 25x81
 708 400 l 25x8080
208 334 m 25x90
 333 334 l 25
 333 267 l 25
 208 267 l 25x88
 208 334 l 25x90
583 334 m 25x82
 708 334 l 25
 708 267 l 25
 583 267 l 25x81
 583 334 l 25x82
208 267 m 25x88
 333 267 l 25
 333 200 l 25
 208 200 l 25
 208 267 l 25x88
583 267 m 25x81
 708 267 l 25
 708 200 l 25
 583 200 l 25
 583 267 l 25x81
EndSplineSet
EndChar

StartChar: x
Encoding: 120 120 88
Width: 666
VWidth: 0
Flags: HW
HStem: 200 67<83 208 458 583> 267 200<208 458> 467 67<83 208 458 583>
VStem: 83 125<200 267 467 534> 208 125<267 467> 333 125<267 467> 458 125<200 267 467 534>
LayerCount: 2
Fore
SplineSet
83 534 m 25x30
 208 534 l 25x30
 208 467 l 25x50
 83 467 l 25
 83 534 l 25x30
458 534 m 25x22
 583 534 l 25
 583 467 l 25x22
 458 467 l 25x44
 458 534 l 25x22
208 467 m 25x50
 333 467 l 25
 333 400 l 25
 208 400 l 25x48
 208 467 l 25x50
333 467 m 25
 458 467 l 25
 458 400 l 25x44
 333 400 l 25
 333 467 l 25
208 400 m 25x08
 333 400 l 25
 333 334 l 25
 208 334 l 25
 208 400 l 25x08
333 400 m 25
 458 400 l 25
 458 334 l 25x04
 333 334 l 25
 333 400 l 25
208 334 m 25x88
 333 334 l 25
 333 267 l 25x48
 208 267 l 25x90
 208 334 l 25x88
333 334 m 25
 458 334 l 25
 458 267 l 25x84
 333 267 l 25
 333 334 l 25
83 267 m 25x90
 208 267 l 25
 208 200 l 25
 83 200 l 25
 83 267 l 25x90
458 267 m 25x84
 583 267 l 25
 583 200 l 25
 458 200 l 25x82
 458 267 l 25x84
EndSplineSet
EndChar

StartChar: y
Encoding: 121 121 89
Width: 666
VWidth: 0
Flags: HW
HStem: 67 67<83 208> 180 20G<208 333> 200 134<333 458> 334 200<83 208 458 583>
VStem: 83 125<67 134 334 534> 208 125<67 334> 333 125<200 334> 458 125<334 534>
LayerCount: 2
Fore
SplineSet
83 534 m 25x98
 208 534 l 25
 208 467 l 25
 83 467 l 25
 83 534 l 25x98
458 534 m 25x91
 583 534 l 25
 583 467 l 25
 458 467 l 25
 458 534 l 25x91
83 467 m 25x88
 208 467 l 25
 208 400 l 25
 83 400 l 25
 83 467 l 25x88
458 467 m 25x81
 583 467 l 25
 583 400 l 25
 458 400 l 25
 458 467 l 25x81
83 400 m 25x98
 208 400 l 25
 208 334 l 25
 83 334 l 25
 83 400 l 25x98
458 400 m 25xa1
 583 400 l 25
 583 334 l 25x91
 458 334 l 25xa2
 458 400 l 25xa1
208 334 m 25x98
 333 334 l 25
 333 267 l 25
 208 267 l 25xa4
 208 334 l 25x98
333 334 m 25
 458 334 l 25
 458 267 l 25xa2
 333 267 l 25
 333 334 l 25
208 267 m 25xc4
 333 267 l 25
 333 200 l 25
 208 200 l 25
 208 267 l 25xc4
333 267 m 25
 458 267 l 25
 458 200 l 25xa2
 333 200 l 25
 333 267 l 25
208 200 m 25xc4
 333 200 l 25
 333 134 l 25xc4
 208 134 l 25xc8
 208 200 l 25xc4
83 134 m 25x88
 208 134 l 25
 208 67 l 25
 83 67 l 25
 83 134 l 25x88
208 134 m 25
 333 134 l 25
 333 67 l 25x84
 208 67 l 25
 208 134 l 25
EndSplineSet
EndChar

StartChar: z
Encoding: 122 122 90
Width: 666
VWidth: 0
Flags: HW
HStem: 200 134<83 208> 200 67<208 583> 334 66<208 333> 400 134<333 458> 467 67<83 333 458 583>
VStem: 83 125<200 334 467 534> 208 125<200 267 334 400 467 534> 333 125<200 267 400 534> 458 125<200 267 467 534>
LayerCount: 2
Fore
SplineSet
83 534 m 25x0c
 208 534 l 25
 208 467 l 25
 83 467 l 25
 83 534 l 25x0c
208 534 m 25
 333 534 l 25x12
 333 467 l 25x0a
 208 467 l 25
 208 534 l 25
333 534 m 25
 458 534 l 25x11
 458 467 l 25x09
 333 467 l 25x0a
 333 534 l 25
458 534 m 25
 583 534 l 25
 583 467 l 25x0880
 458 467 l 25x09
 458 534 l 25
333 467 m 25x2a
 458 467 l 25x29
 458 400 l 25x11
 333 400 l 25
 333 467 l 25x2a
208 400 m 25x22
 333 400 l 25
 333 334 l 25x22
 208 334 l 25x84
 208 400 l 25x22
83 334 m 25x84
 208 334 l 25x84
 208 267 l 25
 83 267 l 25x44
 83 334 l 25x84
83 267 m 25x44
 208 267 l 25x44
 208 200 l 25
 83 200 l 25x84
 83 267 l 25x44
208 267 m 25
 333 267 l 25
 333 200 l 25x42
 208 200 l 25x84
 208 267 l 25
333 267 m 25
 458 267 l 25
 458 200 l 25x41
 333 200 l 25
 333 267 l 25
458 267 m 25
 583 267 l 25
 583 200 l 25x4080
 458 200 l 25
 458 267 l 25
EndSplineSet
EndChar

StartChar: braceleft
Encoding: 123 123 91
Width: 666
VWidth: 0
Flags: HW
HStem: 67 67<333 583> 134 200<208 333> 180 20G<208 333> 200 21G<208 333> 334 66<83 208> 400 200<208 333> 514 20G<208 333> 534 21G<208 333> 600 67<333 583>
VStem: 83 125<334 400> 208 125<134 334 400 600> 333 125<67 134 600 667> 458 125<67 134 600 667>
LayerCount: 2
Fore
SplineSet
333 667 m 25x0090
 458 667 l 25
 458 600 l 25x0090
 333 600 l 25x0420
 333 667 l 25x0090
458 667 m 25
 583 667 l 25
 583 600 l 25x0088
 458 600 l 25
 458 667 l 25
208 600 m 25x0420
 333 600 l 25x0420
 333 534 l 25
 208 534 l 25x0220
 208 600 l 25x0420
208 534 m 25x0220
 333 534 l 25
 333 467 l 25
 208 467 l 25
 208 534 l 25x0220
208 467 m 25
 333 467 l 25
 333 400 l 25x0420
 208 400 l 25x0840
 208 467 l 25
83 400 m 25x0840
 208 400 l 25x0840
 208 334 l 25x4040
 83 334 l 25
 83 400 l 25x0840
208 334 m 25x4040
 333 334 l 25
 333 267 l 25
 208 267 l 25x4020
 208 334 l 25x4040
208 267 m 25
 333 267 l 25
 333 200 l 25
 208 200 l 25x2020
 208 267 l 25
208 200 m 25
 333 200 l 25
 333 134 l 25xa020
 208 134 l 25x4020
 208 200 l 25
333 134 m 25
 458 134 l 25
 458 67 l 25
 333 67 l 25x8010
 333 134 l 25
458 134 m 25
 583 134 l 25
 583 67 l 25x8008
 458 67 l 25
 458 134 l 25
EndSplineSet
EndChar

StartChar: bar
Encoding: 124 124 92
Width: 291
VWidth: 0
Flags: HW
HStem: 67 21G<83 208> 180 20G<83 208> 200 21G<83 208> 514 20G<83 208> 534 21G<83 208> 647 20G<83 208>
VStem: 83 125<67 667>
LayerCount: 2
Fore
SplineSet
83 667 m 25x86
 208 667 l 25
 208 600 l 25
 83 600 l 25
 83 667 l 25x86
83 600 m 25
 208 600 l 25
 208 534 l 25
 83 534 l 25x96
 83 600 l 25
83 534 m 25
 208 534 l 25
 208 467 l 25
 83 467 l 25
 83 534 l 25
83 467 m 25
 208 467 l 25
 208 400 l 25
 83 400 l 25
 83 467 l 25
83 400 m 25
 208 400 l 25
 208 334 l 25
 83 334 l 25
 83 400 l 25
83 334 m 25
 208 334 l 25
 208 267 l 25
 83 267 l 25
 83 334 l 25
83 267 m 25
 208 267 l 25
 208 200 l 25
 83 200 l 25xc6
 83 267 l 25
83 200 m 25
 208 200 l 25
 208 134 l 25
 83 134 l 25
 83 200 l 25
83 134 m 25
 208 134 l 25
 208 67 l 25
 83 67 l 25
 83 134 l 25
EndSplineSet
EndChar

StartChar: braceright
Encoding: 125 125 93
Width: 666
VWidth: 0
Flags: HW
HStem: 67 67<83 333> 134 200<333 458> 180 20G<333 458> 200 21G<333 458> 334 66<458 583> 400 200<333 458> 514 20G<333 458> 534 21G<333 458> 600 67<83 333>
VStem: 83 125<67 134 600 667> 208 125<67 134 600 667> 333 125<134 334 400 600> 458 125<334 400>
LayerCount: 2
Fore
SplineSet
83 667 m 25x00c0
 208 667 l 25
 208 600 l 25
 83 600 l 25
 83 667 l 25x00c0
208 667 m 25
 333 667 l 25x00a0
 333 600 l 25x0420
 208 600 l 25
 208 667 l 25
333 600 m 25x0420
 458 600 l 25x0410
 458 534 l 25
 333 534 l 25x0210
 333 600 l 25x0420
333 534 m 25x0210
 458 534 l 25
 458 467 l 25
 333 467 l 25
 333 534 l 25x0210
333 467 m 25
 458 467 l 25
 458 400 l 25x0810
 333 400 l 25x0410
 333 467 l 25
458 400 m 25
 583 400 l 25
 583 334 l 25x0808
 458 334 l 25x4010
 458 400 l 25
333 334 m 25x4010
 458 334 l 25
 458 267 l 25
 333 267 l 25
 333 334 l 25x4010
333 267 m 25
 458 267 l 25
 458 200 l 25
 333 200 l 25x2010
 333 267 l 25
333 200 m 25
 458 200 l 25xa010
 458 134 l 25x4010
 333 134 l 25x8020
 333 200 l 25
83 134 m 25x8040
 208 134 l 25
 208 67 l 25
 83 67 l 25
 83 134 l 25x8040
208 134 m 25
 333 134 l 25
 333 67 l 25x8020
 208 67 l 25
 208 134 l 25
EndSplineSet
EndChar

StartChar: asciitilde
Encoding: 126 126 94
Width: 666
VWidth: 0
Flags: HW
HStem: 400 67<333 583> 467 67<83 333>
VStem: 83 125<467 534> 208 125<467 534> 333 125<400 467> 458 125<400 467>
LayerCount: 2
Fore
SplineSet
83 534 m 25x60
 208 534 l 25
 208 467 l 25
 83 467 l 25
 83 534 l 25x60
208 534 m 25
 333 534 l 25x50
 333 467 l 25x90
 208 467 l 25
 208 534 l 25
333 467 m 25x90
 458 467 l 25
 458 400 l 25
 333 400 l 25x88
 333 467 l 25x90
458 467 m 25
 583 467 l 25
 583 400 l 25x84
 458 400 l 25
 458 467 l 25
EndSplineSet
EndChar

